<?xml version="1.0" encoding="utf-8"?>
<!-- Generator: Adobe Illustrator 25.2.1, SVG Export Plug-In . SVG Version: 6.00 Build 0)  -->
<svg version="1.1" id="Layer_1" xmlns="http://www.w3.org/2000/svg" xmlns:xlink="http://www.w3.org/1999/xlink" x="0px" y="0px"
	 viewBox="0 0 560.2 174.4" style="enable-background:new 0 0 560.2 174.4;" xml:space="preserve">
<style type="text/css">
	.st0{fill:none;}
	.st1{clip-path:url(#SVGID_2_);}
	.st2{fill-rule:evenodd;clip-rule:evenodd;fill:#813A96;}
	.st3{fill-rule:evenodd;clip-rule:evenodd;fill:#8E55A2;}
	.st4{fill-rule:evenodd;clip-rule:evenodd;fill:#902B91;}
	.st5{fill-rule:evenodd;clip-rule:evenodd;fill:#A22A66;}
	.st6{fill-rule:evenodd;clip-rule:evenodd;fill:#A12637;}
	.st7{fill-rule:evenodd;clip-rule:evenodd;fill:#D0273F;}
	.st8{fill-rule:evenodd;clip-rule:evenodd;fill:#EE2554;}
	.st9{fill-rule:evenodd;clip-rule:evenodd;fill:#EE2B5D;}
	.st10{fill-rule:evenodd;clip-rule:evenodd;fill:#EE2D4D;}
	.st11{fill-rule:evenodd;clip-rule:evenodd;fill:#EF3D37;}
	.st12{fill-rule:evenodd;clip-rule:evenodd;fill:#F47C30;}
	.st13{fill-rule:evenodd;clip-rule:evenodd;fill:#F47C32;}
	.st14{fill-rule:evenodd;clip-rule:evenodd;fill:#FCB123;}
	.st15{fill-rule:evenodd;clip-rule:evenodd;fill:#F5C422;}
	.st16{fill-rule:evenodd;clip-rule:evenodd;fill:#E7E125;}
	.st17{fill-rule:evenodd;clip-rule:evenodd;fill:#FBD71C;}
	.st18{fill-rule:evenodd;clip-rule:evenodd;fill:#CDCD2D;}
	.st19{fill-rule:evenodd;clip-rule:evenodd;fill:#C7D62F;}
	.st20{fill-rule:evenodd;clip-rule:evenodd;fill:#9AC23C;}
	.st21{fill-rule:evenodd;clip-rule:evenodd;fill:#9DC03B;}
	.st22{fill-rule:evenodd;clip-rule:evenodd;fill:#5FBB46;}
	.st23{fill-rule:evenodd;clip-rule:evenodd;fill:#23B34D;}
	.st24{fill-rule:evenodd;clip-rule:evenodd;fill:#00AB52;}
	.st25{fill-rule:evenodd;clip-rule:evenodd;fill:#009757;}
	.st26{fill-rule:evenodd;clip-rule:evenodd;fill:#00AEBA;}
	.st27{fill-rule:evenodd;clip-rule:evenodd;fill:#00AFCD;}
	.st28{fill-rule:evenodd;clip-rule:evenodd;fill:#0058A0;}
	.st29{fill-rule:evenodd;clip-rule:evenodd;fill:#294A9F;}
	.st30{fill-rule:evenodd;clip-rule:evenodd;fill:#4E437A;}
	.st31{fill-rule:evenodd;clip-rule:evenodd;fill:#8E88A9;}
	.st32{fill-rule:evenodd;clip-rule:evenodd;fill:#8D91B5;}
	.st33{fill-rule:evenodd;clip-rule:evenodd;fill:#C4C4C3;}
	.st34{fill:#2A79BA;}
</style>
<g id="formadeO" transform="matrix(0.967353,0,0,1.057,15.2423,-3.91949)">
	<path class="st0" d="M141,38.4c-16-21-42.7-34.6-73.4-34.6c-49.1,0-83.3,31.1-83.3,74.5s29.3,74.5,78.4,74.5
		c33,0,61-15.8,76.1-39.3c-13.2,14.9-35.1,24.2-57.9,24.2c-39.8,0-61.6-24.8-61.6-60.6S46,16.5,85.8,16.5
		C107,16.3,127.7,25.1,141,38.4"/>
	<g>
		<g>
			<g>
				<defs>
					<path id="SVGID_1_" d="M141,38.4c-16-21-42.7-34.6-73.4-34.6c-49.1,0-83.3,31.1-83.3,74.5s29.3,74.5,78.4,74.5
						c33,0,61-15.8,76.1-39.3c-13.2,14.9-35.1,24.2-57.9,24.2c-39.8,0-61.6-24.8-61.6-60.6S46,16.5,85.8,16.5
						C107,16.3,127.7,25.1,141,38.4"/>
				</defs>
				<clipPath id="SVGID_2_">
					<use xlink:href="#SVGID_1_"  style="overflow:visible;"/>
				</clipPath>
				<g class="st1">
					<g transform="matrix(1.05045,0,0,0.98414,-18.3617,-0.334618)">
						<path class="st2" d="M143.9,120l2.1,2.6l2.5-3.7l-1.6-1.5L143.9,120z"/>
					</g>
					<g transform="matrix(1.05045,0,0,0.98414,-18.3617,-0.334618)">
						<path class="st3" d="M147.4,117.1l1.4,1.4l1.4-2.7l-1.4-0.7L147.4,117.1z"/>
					</g>
					<g transform="matrix(1.05045,0,0,0.98414,-18.3617,-0.334618)">
						<path class="st4" d="M140.5,123.4l0.9,4.5l3.7-4.3l-1.9-2.9L140.5,123.4z"/>
					</g>
					<g transform="matrix(1.05045,0,0,0.98414,-18.3617,-0.334618)">
						<path class="st5" d="M139.6,123.9l1.2,5l-4.1,4.4l-2.1-5.8L139.6,123.9z"/>
					</g>
					<g transform="matrix(1.05045,0,0,0.98414,-18.3617,-0.334618)">
						<path class="st6" d="M133.9,128l2,6.1l-8.2,5.9l-1.6-8L133.9,128z"/>
					</g>
					<g transform="matrix(1.05045,0,0,0.98414,-18.3617,-0.334618)">
						<path class="st7" d="M125.4,132l1.5,9.7l-8.3,8l-2.3-15.7L125.4,132z"/>
					</g>
					<g transform="matrix(1.05045,0,0,0.98414,-18.3617,-0.334618)">
						<path class="st8" d="M115.1,135.5l1.7,14.4l-8.5,2.8l-0.2-16.3L115.1,135.5z"/>
					</g>
					<g transform="matrix(1.05045,0,0,0.98414,-18.3617,-0.334618)">
						<path class="st9" d="M106.6,136.3l-0.7,18.4l-11.4,1.1l3.1-19.5H106.6z"/>
					</g>
					<g transform="matrix(1.05045,0,0,0.98414,-18.3617,-0.334618)">
						<path class="st10" d="M95.9,135.5l-3.4,20.9l-13.3,1.2l9.2-19.7L95.9,135.5z"/>
					</g>
					<g transform="matrix(1.05045,0,0,0.98414,-18.3617,-0.334618)">
						<path class="st11" d="M86.6,137.5l-9.3,19.9L62.8,156l14.4-20.9L86.6,137.5z"/>
					</g>
					<g transform="matrix(1.05045,0,0,0.98414,-18.3617,-0.334618)">
						<path class="st12" d="M75.6,133.9l-14.8,21.8l-14.3-3.8l19.2-22.4L75.6,133.9z"/>
					</g>
					<g transform="matrix(1.05045,0,0,0.98414,-18.3617,-0.334618)">
						<path class="st13" d="M63.9,128.3l-19.6,23.2l-12.9-8.6l24.8-18.7L63.9,128.3z"/>
					</g>
					<g transform="matrix(1.05045,0,0,0.98414,-18.3617,-0.334618)">
						<path class="st14" d="M54.8,123.2l-25.5,19.4L18.8,132L50,116L54.8,123.2z"/>
					</g>
					<g transform="matrix(1.05045,0,0,0.98414,-18.3617,-0.334618)">
						<path class="st15" d="M49.2,114.9l-31.8,15.5l-9.8-13.8l36-10.7L49.2,114.9z"/>
					</g>
					<g transform="matrix(1.05045,0,0,0.98414,-18.3617,-0.334618)">
						<path class="st16" d="M42.6,104.8L7,115.2l-6.4-14.4l38.2-6.1L42.6,104.8z"/>
					</g>
					<g transform="matrix(1.05045,0,0,0.98414,-18.3617,-0.334618)">
						<path class="st17" d="M38.7,93.2l-38.4,6l-3.2-16.5l40.6-0.2L38.7,93.2z"/>
					</g>
					<g transform="matrix(1.05045,0,0,0.98414,-18.3617,-0.334618)">
						<path class="st18" d="M37.5,80.9l-39.7,0.3L-2,65.9l39.1,4.2L37.5,80.9z"/>
					</g>
					<g transform="matrix(1.05045,0,0,0.98414,-18.3617,-0.334618)">
						<path class="st19" d="M37.1,68.7l-38-4L4,47.9l36,11.4L37.1,68.7z"/>
					</g>
					<g transform="matrix(1.05045,0,0,0.98414,-18.3617,-0.334618)">
						<path class="st20" d="M39.9,57.5L4.5,46.9l10-12.3L44.4,48L39.9,57.5z"/>
					</g>
					<g transform="matrix(1.05045,0,0,0.98414,-18.3617,-0.334618)">
						<path class="st21" d="M45.4,46.1l-30-13.2l11.3-12.3l25.7,17.1L45.4,46.1z"/>
					</g>
					<g transform="matrix(1.05045,0,0,0.98414,-18.3617,-0.334618)">
						<path class="st22" d="M53.5,36L27.8,19.5l11.6-8.6L61,29.6L53.5,36z"/>
					</g>
					<g transform="matrix(1.05045,0,0,0.98414,-18.3617,-0.334618)">
						<path class="st23" d="M61,28.7L42,10.9L55.1,4l13.7,23.7L61,28.7z"/>
					</g>
					<g transform="matrix(1.05045,0,0,0.98414,-18.3617,-0.334618)">
						<path class="st24" d="M70,26.9L57,4.1l12.8-2.6L80.1,23L70,26.9z"/>
					</g>
					<g transform="matrix(1.05045,0,0,0.98414,-18.3617,-0.334618)">
						<path class="st25" d="M81.4,22.7L71.6,1.2L85.4,0l6.2,20.7L81.4,22.7z"/>
					</g>
					<g transform="matrix(1.05045,0,0,0.98414,-18.3617,-0.334618)">
						<path class="st26" d="M92.7,20.6L87.3,2.2l13,0.5l2.2,17.7L92.7,20.6z"/>
					</g>
					<g transform="matrix(1.05045,0,0,0.98414,-18.3617,-0.334618)">
						<path class="st27" d="M103.9,19.7l-2-16.5l11.9,3L113.4,21L103.9,19.7z"/>
					</g>
					<g transform="matrix(1.05045,0,0,0.98414,-18.3617,-0.334618)">
						<path class="st28" d="M114.5,21.2l0.6-14.5l9.8,7l-1.9,9.1L114.5,21.2z"/>
					</g>
					<g transform="matrix(1.05045,0,0,0.98414,-18.3617,-0.334618)">
						<path class="st29" d="M124.3,23.6l1.7-9.8l7.5,5.2l-2.8,7.2L124.3,23.6z"/>
					</g>
					<g transform="matrix(1.05045,0,0,0.98414,-18.3617,-0.334618)">
						<path class="st30" d="M134.2,19.8l-2.5,6.8l5,3l2.9-5.3L134.2,19.8z"/>
					</g>
					<g transform="matrix(1.05045,0,0,0.98414,-18.3617,-0.334618)">
						<path class="st31" d="M140.1,25l-2.7,4.7l4.7,3.7l3-4.3L140.1,25z"/>
					</g>
					<g transform="matrix(1.05045,0,0,0.98414,-18.3617,-0.334618)">
						<path class="st32" d="M146.2,30.4l-3.3,3.2l4.2,3c0,0,2.9-2.3,3-2.4C150.1,34.1,146.2,30.4,146.2,30.4z"/>
					</g>
					<g transform="matrix(1.05045,0,0,0.98414,-18.3617,-0.334618)">
						<path class="st33" d="M147.7,37l2.6-2.5l2.2,4.1l-2.6,1L147.7,37z"/>
					</g>
				</g>
			</g>
		</g>
	</g>
</g>
<g transform="matrix(0.764677,0,0,1.0549,-1.24802,-4.00626)">
	<g transform="matrix(1.34401,0,0,1,-20.18,0)">
		<path d="M113.7,23.4c7.5,0,14.6,1.1,21.4,3.3c6.7,2.2,12.7,5.8,17.8,10.8c5.2,5,8.8,10.7,11,16.9s3.3,13,3.3,20.3
			c0,7.8-1.2,15.3-3.7,22.5c-2.4,7.2-6.2,13.3-11.3,18.3s-11.3,8.8-18.7,11.3c-7.4,2.5-15.2,3.8-23.4,3.8c-7.8,0-15.2-1.1-22.3-3.4
			c-7.1-2.3-13.2-5.8-18.2-10.5s-8.7-10.3-10.9-16.7s-3.3-13.2-3.3-20.4c0-7.9,1.3-15.5,4-22.8s6.7-13.4,11.9-18.5
			c5.3-5,11.6-8.8,19-11.2C97.8,24.6,105.6,23.4,113.7,23.4z M112.8,33.5c-6.1,0-11.8,1-17.3,2.9c-5.4,2-10.2,5.1-14.2,9.4
			s-7,9.4-9,15.2s-2.9,11.9-2.9,18.3c0,5.9,1,11.5,2.9,16.9s4.8,9.9,8.5,13.5c3.8,3.6,8.3,6.3,13.5,8c5.3,1.8,10.8,2.6,16.5,2.6
			c5.9,0,11.5-0.9,16.9-2.8s10-4.9,13.9-8.9c3.9-4.1,6.8-9,8.6-14.8C152.1,88,153,82,153,75.6c0-6-0.9-11.7-2.5-17.2
			c-1.7-5.5-4.4-10.1-8.1-14c-3.7-3.9-8.2-6.7-13.3-8.4C124,34.4,118.6,33.5,112.8,33.5z"/>
	</g>
	<g transform="matrix(1.34401,0,0,1,-20.18,0)">
		<path d="M182.2,128.9c1-15.6,2-34.1,3-55.6c0.7-15.6,1.1-31.7,1.4-48.3l7.1,0.1c1.5,0,3.7,0,6.8-0.1l-2.4,44.7l-1.7,45.2l-0.3,14
			c-3-0.1-5.2-0.2-6.7-0.2C188.8,128.8,186.4,128.8,182.2,128.9z"/>
	</g>
	<g transform="matrix(1.34401,0,0,1,-20.18,0)">
		<path d="M220.8,35.2c0.2-4.8,0.2-8.4,0.2-10.8c2.8,0.1,5.3,0.2,7.4,0.2c2.7,0,5.1-0.1,7.3-0.2c-0.1,1.6-0.3,5.2-0.5,10.8
			c-2.7-0.1-5.1-0.1-7.1-0.1S223.8,35.2,220.8,35.2z M217.4,128.9l1.3-19.2l1.4-32.7l0.6-25.2l7,0.1l6.8-0.1
			c-0.6,7.9-1.1,16.2-1.5,24.9s-0.8,18.1-1.1,28.4c-0.3,10.2-0.4,18.2-0.4,23.9c-3.2-0.1-5.5-0.2-6.8-0.2S221,128.8,217.4,128.9z"/>
	</g>
	<g transform="matrix(1.34401,0,0,1,-20.18,0)">
		<path d="M253.8,128.9l1.3-17.3l2.4-59.5l0.3-12.8c0.1-2,0.1-4,0.1-6V25c6.3,0.1,11.5,0.2,15.5,0.2c2.4,0,6-0.1,11-0.2
			c4.9-0.1,8.6-0.2,11-0.2c6.4,0,11.2,0.5,14.3,1.4c3.1,0.9,5.8,2.5,8.2,4.7c2.4,2.2,4.3,4.9,5.6,8.2c1.4,3.2,2.1,6.8,2.1,10.7
			c0,6.4-1.6,12.1-4.9,17.2c-3.2,5.1-7.7,8.9-13.3,11.4c-5.6,2.5-11.9,3.8-18.8,3.8c-3.7,0-7.7-0.4-12.2-1.2
			c-0.8-3.5-1.6-6.7-2.6-9.5c4,0.8,7.8,1.1,11.6,1.1c3.7,0,7.1-0.4,10.5-1.3c3.3-0.8,6.2-2.2,8.6-4.2s4.2-4.4,5.6-7.3
			c1.3-2.9,2-6.1,2-9.4c0-2.6-0.5-5-1.4-7.2c-1-2.2-2.3-4-4-5.3c-1.7-1.3-3.6-2.2-5.8-2.6c-2.2-0.5-5.3-0.7-9.4-0.7H285l-8,0.2
			l-5.9-0.1c-0.6,11.1-1,21.2-1.3,30.3l-1.1,31.3c-0.4,11.9-0.5,19.8-0.5,23.8v8.6l-7.1-0.2C260.2,128.8,257.8,128.8,253.8,128.9z"
			/>
	</g>
	<g transform="matrix(1.34401,0,0,1,-20.18,0)">
		<path d="M336.6,128.9c1.8-29.3,2.7-52.6,2.7-70.1l-0.1-7c2.6,0.1,4.7,0.1,6.4,0.1c1.9,0,4.1,0,6.5-0.1l-0.6,12.6
			c1.9-3.1,3.5-5.5,5-7.1c1.4-1.6,3.1-2.9,4.9-4c1.8-1,3.9-1.9,6.2-2.4c2.3-0.6,4.7-0.9,7.2-0.9c2.1,0,4.2,0.3,6.3,0.8
			c0.1,3.3,0.2,7.1,0.5,11.3c-3.1-0.9-6-1.3-8.4-1.3c-3,0-5.7,0.5-8.1,1.5s-4.5,2.5-6.4,4.5s-3.5,4.4-4.7,7.2
			c-1,2.2-1.8,5.1-2.3,8.7s-1,10-1.3,19.4c-0.2,6.8-0.3,14.1-0.3,21.8v5.1c-2.7-0.1-4.9-0.2-6.6-0.2
			C342,128.8,339.7,128.8,336.6,128.9z"/>
	</g>
	<g transform="matrix(1.34401,0,0,1,-20.18,0)">
		<path d="M395.1,35.2c0.2-4.8,0.2-8.4,0.2-10.8c2.8,0.1,5.3,0.2,7.4,0.2c2.7,0,5.1-0.1,7.3-0.2c-0.1,1.6-0.3,5.2-0.5,10.8
			c-2.7-0.1-5.1-0.1-7.1-0.1C400.5,35.2,398.1,35.2,395.1,35.2z M391.7,128.9l1.3-19.2l1.4-32.7l0.6-25.2l7,0.1l6.8-0.1
			c-0.6,7.9-1.1,16.2-1.5,24.9c-0.5,8.7-0.8,18.1-1.1,28.4c-0.3,10.2-0.4,18.2-0.4,23.9c-3.2-0.1-5.5-0.2-6.8-0.2
			S395.3,128.8,391.7,128.9z"/>
	</g>
	<g transform="matrix(1.34401,0,0,1,-20.18,0)">
		<path d="M426,128.9c2.4-31.8,3.7-57.5,3.8-77.1l6.9,0.1c1.7,0,3.9,0,6.6-0.1l-1,15.2c1.3-2.1,2.3-3.8,3-4.9c0.8-1.1,1.8-2.3,3-3.6
			c1.3-1.3,2.8-2.4,4.5-3.5s3.8-2,6.1-2.7c2.3-0.7,4.7-1.3,7.1-1.6c2.4-0.4,4.8-0.5,7.2-0.5c4.4,0,8.6,0.5,12.6,1.6
			c4.1,1.1,7.4,2.8,10,5.2s4.4,5.1,5.3,8.1c0.9,3,1.3,6.2,1.3,9.7c0,0.7,0,1.9-0.1,3.8c-0.1,1.9-0.2,4.3-0.3,7.4l-1.5,31.9
			c-0.1,3-0.2,6.8-0.2,11.2c-2.3-0.1-4.4-0.2-6.5-0.2c-2.5,0-4.8,0.1-7,0.2c0.5-6.1,0.9-12.1,1.1-17.7l1-17.7
			c0.3-6.1,0.5-10.7,0.5-13.8c0-4.5-0.8-8-2.3-10.7s-4-4.7-7.3-6.2c-3.3-1.4-7.1-2.2-11.3-2.2c-5.9,0-10.9,1.4-15.1,4.2
			c-3.9,2.6-6.8,6.3-9,11c-1.5,3.4-2.5,8.4-3.1,15.1c-0.8,8-1.3,20.6-1.6,38c-2.8-0.1-5-0.2-6.6-0.2
			C431.5,128.8,429.2,128.8,426,128.9z"/>
	</g>
	<g transform="matrix(1.34401,0,0,1,-20.18,0)">
		<path d="M559.3,118.9c-0.6,2.5-1.2,5.8-1.8,9.9c-3.5,0.8-6.2,1.3-8.2,1.5s-4,0.3-5.8,0.3c-4.5,0-8.2-0.6-10.9-1.7
			c-2.8-1.1-4.9-3-6.4-5.5s-2.2-5.9-2.2-10.2c0-0.6,0-1.5,0.1-3c0.1-1.4,0.3-6.4,0.8-14.8l1.8-34.1h-10.1c0.2-2.1,0.4-5.2,0.5-9.1
			h10.4c0.3-2.8,0.5-7.7,0.8-14.5c4.8-0.9,8.8-1.8,12.1-2.6c-0.4,7.5-0.6,13.2-0.6,17.1H561c-0.3,3.2-0.4,6.2-0.5,9.1h-21.1
			l-2.1,42.9l-0.1,3.3c0,3.7,0.4,6.5,1.3,8.3c0.8,1.9,2.1,3.2,3.8,4s3.4,1.2,5.3,1.2c1.3,0,2.6-0.1,4.1-0.3
			C553,120.4,555.6,119.8,559.3,118.9z"/>
	</g>
</g>
<g>
	<path class="st34" d="M173,158.1c0.8,0.5,1.9,0.9,3,0.9c1.7,0,2.7-0.9,2.7-2.2c0-1.2-0.7-1.9-2.5-2.6c-2.1-0.8-3.4-1.9-3.4-3.7
		c0-2,1.7-3.5,4.2-3.5c1.3,0,2.3,0.3,2.9,0.6l-0.5,1.4c-0.4-0.2-1.3-0.6-2.5-0.6c-1.8,0-2.5,1.1-2.5,2c0,1.2,0.8,1.8,2.6,2.5
		c2.2,0.9,3.3,1.9,3.3,3.8c0,2-1.5,3.8-4.6,3.8c-1.3,0-2.6-0.4-3.3-0.8L173,158.1z"/>
	<path class="st34" d="M186.3,160.4c-0.5,0-0.9-0.1-1.3-0.2c-0.4-0.1-0.7-0.2-1-0.4s-0.5-0.4-0.7-0.7s-0.3-0.5-0.5-0.8
		c-0.1-0.2-0.2-0.5-0.2-0.7c0-0.3-0.1-0.6-0.1-0.9v-5.5h1.5v5.5c0,0.5,0.1,0.9,0.2,1.2c0.2,0.4,0.4,0.7,0.7,0.9s0.8,0.3,1.3,0.3
		c0.6,0,1-0.1,1.3-0.4c0.3-0.2,0.6-0.6,0.7-1c0.1-0.3,0.2-0.7,0.2-1.1v-5.5h1.5v5.5c0,0.3,0,0.6-0.1,0.8c0,0.3-0.1,0.5-0.2,0.7
		c-0.1,0.3-0.3,0.6-0.5,0.9c-0.2,0.3-0.4,0.5-0.7,0.7s-0.6,0.3-1,0.4C187.2,160.4,186.8,160.4,186.3,160.4z"/>
	<path class="st34" d="M200.8,155.5c0,0.8-0.1,1.6-0.3,2.2s-0.5,1.1-0.9,1.5s-0.8,0.7-1.3,0.9s-1,0.3-1.5,0.3c-0.4,0-0.7,0-1-0.1
		s-0.5-0.2-0.7-0.3s-0.4-0.3-0.5-0.4c-0.1-0.1-0.2-0.2-0.3-0.3l0,0l-0.3,1h-1.1v-13.7h1.5v5.5l0,0c0.3-0.3,0.7-0.6,1.1-0.8
		c0.4-0.2,0.9-0.3,1.5-0.3c0.3,0,0.5,0,0.8,0.1s0.6,0.2,0.9,0.3c0.3,0.1,0.6,0.3,0.8,0.5s0.5,0.5,0.7,0.8s0.4,0.7,0.5,1.2
		C200.7,154.4,200.8,154.9,200.8,155.5z M199.3,155.6c0-0.7-0.1-1.3-0.2-1.7c-0.2-0.4-0.4-0.8-0.6-1c-0.3-0.2-0.5-0.4-0.8-0.5
		s-0.6-0.1-0.9-0.1c-0.5,0-0.9,0.1-1.3,0.3c-0.4,0.2-0.8,0.4-1.1,0.7v4.7c0.1,0.1,0.2,0.2,0.3,0.4s0.3,0.3,0.5,0.4
		c0.2,0.1,0.4,0.2,0.7,0.3c0.2,0.1,0.5,0.1,0.8,0.1c0.4,0,0.8-0.1,1.1-0.3s0.6-0.4,0.8-0.7s0.4-0.7,0.5-1.1
		C199.2,156.6,199.3,156.2,199.3,155.6z"/>
	<path class="st34" d="M203.2,160.2v-13.7h1.5v13.7H203.2z"/>
	<path class="st34" d="M207.7,149.1v-1.6h1.5v1.6H207.7z M207.7,160.2v-9h1.5v9H207.7z"/>
	<path class="st34" d="M219.4,160.2H218v-5.8c0-0.4,0-0.7-0.1-1s-0.2-0.5-0.4-0.7s-0.4-0.3-0.6-0.4c-0.2-0.1-0.5-0.1-0.8-0.1
		c-0.5,0-1,0.1-1.4,0.4c-0.4,0.3-0.8,0.7-1.2,1.2v6.4H212v-9h1.1l0.3,1.2l0,0c0.2-0.2,0.3-0.4,0.5-0.6s0.4-0.3,0.6-0.5
		c0.2-0.1,0.5-0.2,0.8-0.3s0.6-0.1,0.9-0.1c0.7,0,1.2,0.2,1.7,0.5s0.8,0.8,1,1.3l0,0c0.4-0.6,0.9-1,1.4-1.3s1.1-0.5,1.8-0.5
		c0.3,0,0.6,0,1,0.1s0.7,0.2,1,0.5c0.3,0.2,0.5,0.6,0.7,1s0.3,1,0.3,1.6v6h-1.5v-5.8c0-0.4,0-0.7-0.1-1s-0.2-0.5-0.4-0.7
		s-0.4-0.3-0.6-0.4c-0.2-0.1-0.5-0.1-0.8-0.1c-0.5,0-1,0.1-1.4,0.4s-0.8,0.7-1.2,1.2v6.5H219.4z"/>
	<path class="st34" d="M233.4,159.2L233.4,159.2c-0.2,0.2-0.3,0.3-0.5,0.4c-0.2,0.1-0.4,0.3-0.6,0.4c-0.2,0.1-0.5,0.2-0.8,0.3
		s-0.6,0.1-0.9,0.1c-0.4,0-0.8-0.1-1.2-0.2c-0.4-0.1-0.7-0.3-0.9-0.6c-0.3-0.2-0.5-0.6-0.6-0.9c-0.1-0.4-0.2-0.8-0.2-1.2
		s0.1-0.8,0.2-1.2c0.2-0.4,0.4-0.7,0.7-0.9s0.6-0.4,1-0.6c0.4-0.1,0.9-0.2,1.3-0.2c0.5,0,0.9,0,1.3,0.1c0.4,0.1,0.7,0.2,1.1,0.3l0,0
		v-0.6c0-0.2,0-0.5,0-0.7s-0.1-0.4-0.2-0.5c-0.2-0.3-0.4-0.6-0.8-0.8c-0.4-0.2-0.8-0.3-1.5-0.3c-0.5,0-0.9,0-1.3,0.1
		c-0.4,0.1-0.8,0.2-1.2,0.4v-1.2c0.2-0.1,0.3-0.1,0.5-0.2c0.2-0.1,0.4-0.1,0.6-0.2c0.2,0,0.5-0.1,0.7-0.1c0.3,0,0.5,0,0.8,0
		c0.9,0,1.6,0.2,2.2,0.5c0.6,0.3,1,0.7,1.2,1.3c0.1,0.2,0.2,0.4,0.2,0.7c0,0.2,0.1,0.5,0.1,0.8v6h-1.2L233.4,159.2z M233.3,156.2
		c-0.3-0.1-0.6-0.1-1-0.2s-0.8-0.1-1.2-0.1c-0.6,0-1.1,0.1-1.5,0.4c-0.4,0.3-0.5,0.7-0.5,1.2c0,0.3,0,0.5,0.1,0.7s0.2,0.4,0.4,0.5
		s0.3,0.2,0.5,0.3s0.4,0.1,0.7,0.1s0.6,0,0.9-0.1c0.3-0.1,0.5-0.2,0.7-0.3s0.4-0.3,0.5-0.4c0.1-0.1,0.3-0.2,0.3-0.3v-1.8H233.3z"/>
	<path class="st34" d="M241.4,151c0.4,0,0.8,0,1.2,0.1s0.7,0.2,1,0.4v1.2c-0.4-0.2-0.8-0.3-1.1-0.3c-0.3-0.1-0.7-0.1-1-0.1
		c-0.4,0-0.7,0.1-1.1,0.2c-0.4,0.1-0.7,0.3-1,0.6s-0.5,0.6-0.7,1.1s-0.3,1-0.3,1.7c0,0.5,0.1,0.9,0.2,1.3s0.3,0.8,0.6,1.1
		s0.6,0.5,1,0.7s0.8,0.3,1.3,0.3c0.4,0,0.7,0,1.1-0.1c0.4-0.1,0.7-0.2,1.1-0.3v1.2c-0.1,0.1-0.2,0.1-0.4,0.2
		c-0.2,0.1-0.4,0.1-0.6,0.2c-0.2,0-0.4,0.1-0.7,0.1c-0.2,0-0.5,0-0.7,0c-0.6,0-1.2-0.1-1.7-0.3s-1-0.5-1.4-0.8
		c-0.4-0.4-0.7-0.9-1-1.4s-0.3-1.3-0.3-2.1c0-0.6,0.1-1.1,0.2-1.6c0.1-0.5,0.3-0.9,0.5-1.2c0.2-0.4,0.5-0.7,0.8-0.9
		c0.3-0.3,0.6-0.5,0.9-0.6c0.3-0.2,0.7-0.3,1-0.3S241.1,151,241.4,151z"/>
	<path class="st34" d="M246.1,149.1v-1.6h1.5v1.6H246.1z M246.2,160.2v-9h1.5v9H246.2z"/>
	<path class="st34" d="M258.5,155.7c0,0.7-0.1,1.3-0.3,1.9c-0.2,0.6-0.5,1.1-0.9,1.5s-0.8,0.7-1.3,1s-1.1,0.3-1.8,0.3
		s-1.3-0.1-1.8-0.3s-1-0.5-1.3-1c-0.4-0.4-0.6-0.9-0.8-1.5s-0.3-1.2-0.3-1.9s0.1-1.4,0.3-1.9c0.2-0.6,0.5-1.1,0.9-1.5s0.8-0.7,1.3-1
		s1.1-0.3,1.8-0.3s1.3,0.1,1.8,0.3c0.5,0.2,1,0.5,1.3,1c0.4,0.4,0.6,0.9,0.8,1.5C258.4,154.3,258.5,155,258.5,155.7z M257,155.7
		c0-0.6-0.1-1-0.2-1.5c-0.1-0.4-0.3-0.8-0.6-1.1c-0.2-0.3-0.5-0.5-0.9-0.7c-0.3-0.2-0.7-0.2-1.1-0.2s-0.8,0.1-1.1,0.2
		s-0.6,0.4-0.9,0.7s-0.4,0.7-0.6,1.1c-0.1,0.4-0.2,0.9-0.2,1.5c0,0.5,0.1,1,0.2,1.5c0.1,0.4,0.3,0.8,0.6,1.1s0.5,0.5,0.9,0.7
		c0.3,0.2,0.7,0.2,1.1,0.2s0.8-0.1,1.1-0.2c0.3-0.2,0.6-0.4,0.9-0.7c0.2-0.3,0.4-0.7,0.6-1.1C256.9,156.7,257,156.2,257,155.7z"/>
	<path class="st34" d="M262.3,152.4L262.3,152.4c0.2-0.2,0.4-0.4,0.6-0.6s0.4-0.3,0.7-0.5c0.2-0.1,0.5-0.2,0.8-0.3s0.6-0.1,1-0.1
		s0.8,0.1,1.2,0.2c0.4,0.1,0.7,0.3,0.9,0.5c0.3,0.3,0.5,0.6,0.6,1c0.2,0.4,0.2,0.9,0.2,1.5v6h-1.5v-5.8c0-0.8-0.1-1.3-0.4-1.7
		s-0.7-0.5-1.3-0.5c-0.5,0-1,0.1-1.5,0.4c-0.5,0.3-0.9,0.7-1.2,1.2v6.4h-1.5v-9h1.1L262.3,152.4z"/>
	<path class="st34" d="M271.4,158.1h1.8l-1.6,5.7h-1.8L271.4,158.1z"/>
	<path class="st34" d="M280.1,149.1v-1.6h1.5v1.6H280.1z M280.1,160.2v-9h1.5v9H280.1z"/>
	<path class="st34" d="M291.8,160.2h-1.5v-5.8c0-0.4,0-0.7-0.1-1s-0.2-0.5-0.4-0.7c-0.2-0.2-0.4-0.3-0.6-0.4
		c-0.2-0.1-0.5-0.1-0.8-0.1c-0.5,0-1,0.1-1.4,0.4s-0.8,0.7-1.2,1.2v6.4h-1.5v-9h1.1l0.3,1.2l0,0c0.2-0.2,0.3-0.4,0.5-0.6
		s0.4-0.3,0.6-0.5c0.2-0.1,0.5-0.2,0.8-0.3s0.6-0.1,0.9-0.1c0.7,0,1.2,0.2,1.7,0.5c0.4,0.3,0.8,0.8,1,1.3l0,0c0.4-0.6,0.9-1,1.4-1.3
		s1.1-0.5,1.8-0.5c0.3,0,0.6,0,1,0.1s0.7,0.2,1,0.5c0.3,0.2,0.5,0.6,0.7,1s0.3,1,0.3,1.6v6h-1.5v-5.8c0-0.4,0-0.7-0.1-1
		s-0.2-0.5-0.4-0.7c-0.2-0.2-0.4-0.3-0.6-0.4c-0.2-0.1-0.5-0.1-0.8-0.1c-0.5,0-1,0.1-1.4,0.4s-0.8,0.7-1.2,1.2v6.5H291.8z"/>
	<path class="st34" d="M308.5,155.6c0,0.6-0.1,1.2-0.2,1.7s-0.3,0.9-0.5,1.3c-0.2,0.4-0.4,0.7-0.7,0.9s-0.6,0.4-0.8,0.6
		c-0.3,0.1-0.6,0.3-0.9,0.3c-0.3,0.1-0.6,0.1-0.8,0.1c-0.6,0-1-0.1-1.4-0.3s-0.8-0.4-1.1-0.8l0,0v5.2h-1.4v-13.4h1.1l0.3,1l0,0
		c0.1-0.1,0.2-0.2,0.3-0.4c0.1-0.1,0.3-0.2,0.5-0.4c0.2-0.1,0.5-0.3,0.8-0.4c0.3-0.1,0.6-0.2,1-0.2c0.5,0,1,0.1,1.5,0.3
		s0.9,0.4,1.2,0.8c0.4,0.4,0.6,0.8,0.9,1.4S308.5,154.7,308.5,155.6z M306.9,155.6c0-0.5-0.1-1-0.2-1.4s-0.3-0.8-0.5-1.1
		s-0.5-0.5-0.8-0.7s-0.7-0.2-1.1-0.2c-0.3,0-0.6,0-0.8,0.1c-0.2,0.1-0.5,0.2-0.7,0.3s-0.4,0.3-0.5,0.4c-0.1,0.1-0.3,0.3-0.4,0.4v4.7
		c0.3,0.3,0.7,0.6,1.1,0.7c0.4,0.2,0.8,0.3,1.3,0.3c0.3,0,0.6-0.1,0.9-0.2s0.6-0.3,0.9-0.6s0.5-0.6,0.7-1.1
		C306.8,156.9,306.9,156.3,306.9,155.6z"/>
	<path class="st34" d="M315.7,152.4h-0.1c-0.3,0-0.7,0-1,0.1s-0.6,0.2-0.9,0.3s-0.6,0.3-0.8,0.5c-0.2,0.2-0.4,0.4-0.6,0.7v6.2h-1.5
		v-9h1.1l0.3,1.4l0,0c0.1-0.2,0.3-0.4,0.5-0.7c0.2-0.2,0.4-0.4,0.7-0.5c0.3-0.2,0.6-0.3,0.9-0.4c0.3-0.1,0.6-0.1,1-0.1
		c0.1,0,0.1,0,0.2,0s0.1,0,0.2,0L315.7,152.4L315.7,152.4z"/>
	<path class="st34" d="M321.5,159.1c0.5,0,0.9,0,1.3-0.1s0.8-0.2,1.2-0.3v1.2c-0.3,0.2-0.7,0.3-1.2,0.4c-0.5,0.1-1,0.1-1.5,0.1
		c-0.6,0-1.2-0.1-1.8-0.2c-0.6-0.2-1.1-0.4-1.5-0.8c-0.4-0.4-0.7-0.8-1-1.4c-0.2-0.6-0.3-1.3-0.3-2.1s0.1-1.5,0.3-2.1
		c0.2-0.6,0.5-1.1,0.9-1.5s0.8-0.7,1.3-0.9s1-0.3,1.5-0.3s1,0.1,1.4,0.2c0.4,0.2,0.8,0.4,1.1,0.8c0.3,0.4,0.6,0.8,0.8,1.4
		c0.2,0.6,0.3,1.2,0.3,2c0,0.1,0,0.1,0,0.2c0,0.1,0,0.2,0,0.4h-6.2c0,0.6,0.1,1.1,0.3,1.5c0.2,0.4,0.4,0.7,0.7,1
		c0.3,0.2,0.6,0.4,1.1,0.5C320.6,159.1,321,159.1,321.5,159.1z M320.7,152.2c-0.3,0-0.7,0.1-0.9,0.2c-0.3,0.1-0.5,0.3-0.8,0.5
		s-0.4,0.5-0.5,0.8s-0.2,0.6-0.2,1h4.6c0-0.4,0-0.7-0.1-1s-0.2-0.6-0.4-0.8s-0.4-0.4-0.7-0.5S321.1,152.2,320.7,152.2z"/>
	<path class="st34" d="M327.9,153.6c0,0.2,0.1,0.4,0.2,0.6c0.1,0.2,0.2,0.3,0.4,0.4c0.2,0.1,0.4,0.2,0.6,0.2
		c0.2,0.1,0.5,0.1,0.7,0.2c0.3,0.1,0.7,0.2,1,0.2c0.3,0.1,0.6,0.2,0.8,0.4s0.5,0.4,0.6,0.7c0.2,0.3,0.2,0.7,0.2,1.2
		s-0.1,0.9-0.3,1.2c-0.2,0.3-0.4,0.6-0.7,0.9c-0.3,0.2-0.7,0.4-1.2,0.5s-0.9,0.2-1.5,0.2c-0.3,0-0.6,0-0.9-0.1
		c-0.3,0-0.5-0.1-0.7-0.1s-0.4-0.1-0.5-0.2c-0.1-0.1-0.3-0.1-0.4-0.2v-1.2c0.4,0.2,0.7,0.3,1.1,0.4c0.4,0.1,0.8,0.1,1.2,0.1
		c0.3,0,0.7,0,0.9-0.1c0.3-0.1,0.5-0.2,0.7-0.3s0.4-0.3,0.5-0.5s0.2-0.4,0.2-0.6c0-0.3,0-0.5-0.1-0.6s-0.2-0.3-0.4-0.4
		c-0.2-0.1-0.4-0.2-0.6-0.3s-0.4-0.1-0.7-0.2c-0.3-0.1-0.6-0.2-1-0.2s-0.6-0.2-0.9-0.4s-0.5-0.4-0.6-0.7c-0.2-0.3-0.2-0.7-0.2-1.1
		c0-0.5,0.1-0.9,0.3-1.2c0.2-0.3,0.4-0.6,0.7-0.9c0.3-0.2,0.6-0.4,1-0.5s0.8-0.2,1.2-0.2c0.5,0,1,0,1.4,0.1s0.8,0.2,1.2,0.4v1.2
		c-0.4-0.1-0.7-0.3-1.1-0.4c-0.4-0.1-0.8-0.1-1.2-0.1c-0.3,0-0.6,0-0.9,0.1c-0.2,0.1-0.4,0.2-0.6,0.3s-0.3,0.3-0.3,0.4
		C328,153.2,327.9,153.4,327.9,153.6z"/>
	<path class="st34" d="M334.7,149.1v-1.6h1.5v1.6H334.7z M334.8,160.2v-9h1.5v9H334.8z"/>
	<path class="st34" d="M347.2,155.7c0,0.7-0.1,1.3-0.3,1.9s-0.5,1.1-0.9,1.5s-0.8,0.7-1.3,1c-0.5,0.2-1.1,0.3-1.8,0.3
		c-0.7,0-1.3-0.1-1.8-0.3s-1-0.5-1.3-1c-0.4-0.4-0.6-0.9-0.8-1.5s-0.3-1.2-0.3-1.9s0.1-1.4,0.3-1.9c0.2-0.6,0.5-1.1,0.9-1.5
		s0.8-0.7,1.3-1s1.1-0.3,1.8-0.3c0.7,0,1.3,0.1,1.8,0.3s1,0.5,1.3,1c0.4,0.4,0.6,0.9,0.8,1.5S347.2,155,347.2,155.7z M345.6,155.7
		c0-0.6-0.1-1-0.2-1.5c-0.1-0.4-0.3-0.8-0.6-1.1s-0.5-0.5-0.9-0.7c-0.3-0.2-0.7-0.2-1.1-0.2s-0.8,0.1-1.1,0.2s-0.6,0.4-0.9,0.7
		s-0.4,0.7-0.6,1.1c-0.1,0.4-0.2,0.9-0.2,1.5c0,0.5,0.1,1,0.2,1.5c0.1,0.4,0.3,0.8,0.6,1.1c0.2,0.3,0.5,0.5,0.9,0.7s0.7,0.2,1.1,0.2
		s0.8-0.1,1.1-0.2s0.6-0.4,0.9-0.7s0.4-0.7,0.6-1.1C345.6,156.7,345.6,156.2,345.6,155.7z"/>
	<path class="st34" d="M350.9,152.4L350.9,152.4c0.2-0.2,0.4-0.4,0.6-0.6c0.2-0.2,0.4-0.3,0.7-0.5c0.2-0.1,0.5-0.2,0.8-0.3
		s0.6-0.1,1-0.1s0.8,0.1,1.2,0.2c0.4,0.1,0.7,0.3,0.9,0.5c0.3,0.3,0.5,0.6,0.6,1c0.2,0.4,0.2,0.9,0.2,1.5v6h-1.5v-5.8
		c0-0.8-0.2-1.3-0.4-1.7s-0.7-0.5-1.3-0.5c-0.5,0-1,0.1-1.5,0.4c-0.5,0.3-0.9,0.7-1.2,1.2v6.4h-1.5v-9h1.1L350.9,152.4z"/>
	<path class="st34" d="M367.4,157.3c0.3,0,0.7,0.1,1,0.2c0.3,0.1,0.6,0.3,0.8,0.6s0.4,0.5,0.6,0.9c0.1,0.4,0.2,0.8,0.2,1.3
		c0,0.6-0.1,1.1-0.3,1.6c-0.2,0.5-0.5,0.9-0.9,1.2s-0.8,0.6-1.4,0.8s-1.2,0.3-1.9,0.3c-0.5,0-1,0-1.5-0.1s-0.9-0.2-1.2-0.4v-1.2
		c0.5,0.2,0.9,0.3,1.3,0.4c0.4,0.1,0.9,0.1,1.2,0.1c0.6,0,1.1-0.1,1.5-0.2s0.7-0.3,0.9-0.6s0.4-0.5,0.5-0.8s0.2-0.6,0.2-1
		c0-0.8-0.3-1.4-0.8-1.8c-0.5-0.4-1.3-0.5-2.3-0.5h-1v-1.3h0.6c0.5,0,1-0.1,1.4-0.2c0.4-0.1,0.7-0.3,1-0.5s0.4-0.5,0.6-0.8
		c0.1-0.3,0.2-0.6,0.2-0.9c0-0.4-0.1-0.7-0.2-0.9c-0.1-0.3-0.3-0.5-0.5-0.6c-0.2-0.2-0.5-0.3-0.8-0.4c-0.3-0.1-0.6-0.1-1-0.1
		s-0.9,0-1.3,0.2c-0.4,0.1-0.9,0.2-1.3,0.4v-1.2c0.5-0.2,1-0.4,1.5-0.4c0.5-0.1,0.9-0.1,1.2-0.1c0.6,0,1.2,0.1,1.6,0.2
		c0.5,0.2,0.9,0.4,1.2,0.7s0.6,0.6,0.8,1s0.3,0.8,0.3,1.3c0,0.3,0,0.6-0.1,0.9c-0.1,0.3-0.2,0.6-0.4,0.8c-0.2,0.3-0.4,0.5-0.7,0.7
		C368.1,156.9,367.8,157.1,367.4,157.3L367.4,157.3z"/>
	<path class="st34" d="M382.7,153.8c0,0.7-0.1,1.4-0.3,2.1c-0.2,0.6-0.5,1.2-0.8,1.8c-0.4,0.5-0.8,1-1.4,1.3
		c-0.6,0.4-1.2,0.7-1.9,0.9c-0.4,0.1-0.9,0.2-1.4,0.2s-1,0.1-1.6,0.1h-2.9v-12.6h2.9c0.6,0,1.1,0,1.6,0.1c0.5,0,0.9,0.1,1.4,0.3
		c0.7,0.2,1.4,0.5,1.9,0.9s1,0.8,1.4,1.3s0.6,1.1,0.8,1.7S382.7,153.1,382.7,153.8z M381.2,153.8c0-1.2-0.3-2.2-0.8-3
		s-1.3-1.3-2.3-1.6c-0.4-0.1-0.8-0.2-1.3-0.2s-1-0.1-1.6-0.1H374v9.9h1.2c0.6,0,1.1,0,1.6-0.1c0.5,0,0.9-0.1,1.3-0.2
		c1-0.3,1.8-0.9,2.3-1.7C380.9,156,381.2,155,381.2,153.8z"/>
	<path class="st34" d="M388,151.2h1.5l2.8,7h0.1l2.9-7h1.5l-5.6,13.4h-1.5l1.9-4.6L388,151.2z"/>
	<path class="st34" d="M410,155.1h-2.9v-1.4h4.4v6.1c-0.1,0.1-0.3,0.1-0.6,0.2c-0.3,0.1-0.5,0.1-0.9,0.2c-0.3,0.1-0.7,0.1-1.1,0.2
		c-0.4,0-0.7,0.1-1.1,0.1c-1.1,0-2-0.1-2.9-0.4c-0.8-0.3-1.5-0.7-2.1-1.3c-0.6-0.5-1-1.2-1.3-2s-0.4-1.6-0.4-2.6s0.2-2,0.5-2.8
		s0.8-1.6,1.4-2.2c0.6-0.6,1.3-1.1,2.2-1.4s1.8-0.5,2.8-0.5c0.3,0,0.6,0,0.8,0c0.3,0,0.5,0.1,0.8,0.1s0.5,0.1,0.7,0.1
		c0.2,0.1,0.4,0.1,0.5,0.2v1.4c-0.4-0.1-0.8-0.2-1.3-0.3s-1-0.1-1.5-0.1c-0.7,0-1.4,0.1-2.1,0.3s-1.2,0.5-1.7,1
		c-0.5,0.4-0.9,1-1.2,1.7c-0.3,0.7-0.4,1.4-0.4,2.3c0,0.9,0.1,1.6,0.4,2.3c0.2,0.6,0.6,1.2,1,1.6s1,0.7,1.6,0.9s1.4,0.3,2.1,0.3
		c0.4,0,0.7,0,1.1-0.1s0.7-0.1,0.9-0.2v-3.7H410z"/>
	<path class="st34" d="M419.4,152.4h-0.1c-0.3,0-0.7,0-1,0.1s-0.6,0.2-0.9,0.3s-0.6,0.3-0.8,0.5c-0.2,0.2-0.4,0.4-0.6,0.7v6.2h-1.5
		v-9h1.1l0.3,1.4l0,0c0.1-0.2,0.3-0.4,0.5-0.7c0.2-0.2,0.4-0.4,0.7-0.5c0.3-0.2,0.6-0.3,0.9-0.4s0.6-0.1,1-0.1c0.1,0,0.1,0,0.2,0
		s0.1,0,0.2,0L419.4,152.4L419.4,152.4z"/>
	<path class="st34" d="M426.2,159.2L426.2,159.2c-0.2,0.2-0.3,0.3-0.5,0.4c-0.2,0.1-0.4,0.3-0.6,0.4c-0.2,0.1-0.5,0.2-0.8,0.3
		s-0.6,0.1-0.9,0.1c-0.4,0-0.8-0.1-1.2-0.2c-0.4-0.1-0.7-0.3-0.9-0.6c-0.3-0.2-0.5-0.6-0.6-0.9c-0.1-0.4-0.2-0.8-0.2-1.2
		s0.1-0.8,0.2-1.2s0.4-0.7,0.7-0.9c0.3-0.2,0.6-0.4,1-0.6c0.4-0.1,0.9-0.2,1.3-0.2c0.5,0,0.9,0,1.3,0.1s0.7,0.2,1.1,0.3l0,0v-0.6
		c0-0.2,0-0.5,0-0.7s-0.1-0.4-0.2-0.5c-0.2-0.3-0.4-0.6-0.8-0.8s-0.8-0.3-1.5-0.3c-0.5,0-0.9,0-1.3,0.1s-0.8,0.2-1.2,0.4v-1.2
		c0.2-0.1,0.3-0.1,0.5-0.2c0.2-0.1,0.4-0.1,0.6-0.2c0.2,0,0.5-0.1,0.7-0.1c0.3,0,0.5,0,0.8,0c0.9,0,1.6,0.2,2.2,0.5s1,0.7,1.2,1.3
		c0.1,0.2,0.2,0.4,0.2,0.7c0,0.2,0.1,0.5,0.1,0.8v6h-1.2L426.2,159.2z M426.1,156.2c-0.3-0.1-0.6-0.1-1-0.2
		c-0.4-0.1-0.8-0.1-1.2-0.1c-0.6,0-1.1,0.1-1.5,0.4c-0.3,0.3-0.5,0.7-0.5,1.2c0,0.3,0,0.5,0.1,0.7s0.2,0.4,0.4,0.5
		c0.2,0.1,0.3,0.2,0.5,0.3s0.4,0.1,0.7,0.1c0.3,0,0.6,0,0.9-0.1s0.5-0.2,0.7-0.3s0.4-0.3,0.5-0.4c0.1-0.1,0.3-0.2,0.3-0.3v-1.8
		H426.1z"/>
	<path class="st34" d="M438.4,155.5c0,0.8-0.1,1.6-0.3,2.2s-0.5,1.1-0.9,1.5s-0.8,0.7-1.3,0.9s-1,0.3-1.5,0.3c-0.4,0-0.7,0-1-0.1
		s-0.5-0.2-0.7-0.3s-0.4-0.3-0.5-0.4c-0.1-0.1-0.2-0.2-0.3-0.3l0,0l-0.3,1h-1.1v-13.7h1.5v5.5l0,0c0.3-0.3,0.7-0.6,1.1-0.8
		s0.9-0.3,1.5-0.3c0.3,0,0.5,0,0.8,0.1s0.6,0.2,0.9,0.3s0.6,0.3,0.8,0.5c0.3,0.2,0.5,0.5,0.7,0.8s0.4,0.7,0.5,1.2
		S438.4,154.9,438.4,155.5z M436.9,155.6c0-0.7-0.1-1.3-0.2-1.7c-0.2-0.4-0.4-0.8-0.6-1c-0.3-0.2-0.5-0.4-0.8-0.5s-0.6-0.1-0.9-0.1
		c-0.5,0-0.9,0.1-1.3,0.3s-0.8,0.4-1.1,0.7v4.7c0.1,0.1,0.2,0.2,0.3,0.4c0.1,0.1,0.3,0.3,0.5,0.4s0.4,0.2,0.7,0.3s0.5,0.1,0.8,0.1
		c0.4,0,0.8-0.1,1.1-0.3s0.6-0.4,0.8-0.7c0.2-0.3,0.4-0.7,0.5-1.1C436.9,156.6,436.9,156.2,436.9,155.6z"/>
	<path class="st34" d="M446,159.2L446,159.2c-0.2,0.2-0.3,0.3-0.5,0.4c-0.2,0.1-0.4,0.3-0.6,0.4c-0.2,0.1-0.5,0.2-0.8,0.3
		s-0.6,0.1-0.9,0.1c-0.4,0-0.8-0.1-1.2-0.2c-0.4-0.1-0.7-0.3-0.9-0.6c-0.3-0.2-0.5-0.6-0.6-0.9c-0.1-0.4-0.2-0.8-0.2-1.2
		s0.1-0.8,0.2-1.2s0.4-0.7,0.7-0.9c0.3-0.2,0.6-0.4,1-0.6c0.4-0.1,0.9-0.2,1.3-0.2c0.5,0,0.9,0,1.3,0.1s0.7,0.2,1.1,0.3l0,0v-0.6
		c0-0.2,0-0.5,0-0.7s-0.1-0.4-0.2-0.5c-0.2-0.3-0.4-0.6-0.8-0.8s-0.8-0.3-1.5-0.3c-0.5,0-0.9,0-1.3,0.1s-0.8,0.2-1.2,0.4v-1.2
		c0.2-0.1,0.3-0.1,0.5-0.2c0.2-0.1,0.4-0.1,0.6-0.2c0.2,0,0.5-0.1,0.7-0.1c0.3,0,0.5,0,0.8,0c0.9,0,1.6,0.2,2.2,0.5s1,0.7,1.2,1.3
		c0.1,0.2,0.2,0.4,0.2,0.7c0,0.2,0.1,0.5,0.1,0.8v6H446L446,159.2z M445.9,156.2c-0.3-0.1-0.6-0.1-1-0.2c-0.4-0.1-0.8-0.1-1.2-0.1
		c-0.6,0-1.1,0.1-1.5,0.4c-0.3,0.3-0.5,0.7-0.5,1.2c0,0.3,0,0.5,0.1,0.7s0.2,0.4,0.4,0.5c0.2,0.1,0.3,0.2,0.5,0.3s0.4,0.1,0.7,0.1
		c0.3,0,0.6,0,0.9-0.1s0.5-0.2,0.7-0.3s0.4-0.3,0.5-0.4c0.1-0.1,0.3-0.2,0.3-0.3v-1.8H445.9z"/>
	<path class="st34" d="M449.7,155.8c0-0.6,0.1-1.2,0.2-1.7s0.3-0.9,0.5-1.3c0.2-0.4,0.4-0.7,0.7-0.9c0.3-0.2,0.6-0.4,0.8-0.6
		s0.6-0.3,0.9-0.3c0.3-0.1,0.6-0.1,0.8-0.1c0.5,0,1,0.1,1.4,0.3s0.8,0.5,1.1,0.8l0,0v-5.5h1.5v13.7h-1.1l-0.3-1l0,0
		c-0.1,0.1-0.2,0.3-0.4,0.4c-0.2,0.1-0.3,0.3-0.5,0.4c-0.2,0.1-0.4,0.2-0.7,0.3c-0.3,0.1-0.6,0.1-0.9,0.1c-0.5,0-1-0.1-1.4-0.3
		c-0.5-0.2-0.9-0.4-1.3-0.8c-0.4-0.4-0.7-0.8-0.9-1.4S449.7,156.6,449.7,155.8z M451.2,155.8c0,0.5,0.1,1,0.2,1.4s0.3,0.8,0.5,1.1
		s0.5,0.5,0.8,0.7s0.7,0.2,1.1,0.2c0.3,0,0.6,0,0.8-0.1s0.5-0.2,0.7-0.3s0.4-0.3,0.5-0.4c0.1-0.1,0.3-0.3,0.3-0.4v-4.7
		c-0.3-0.3-0.7-0.6-1-0.7s-0.8-0.3-1.3-0.3c-0.3,0-0.6,0.1-0.9,0.2c-0.3,0.1-0.6,0.3-0.8,0.6c-0.3,0.3-0.5,0.6-0.6,1.1
		S451.2,155.1,451.2,155.8z"/>
	<path class="st34" d="M468.6,155.7c0,0.7-0.1,1.3-0.3,1.9s-0.5,1.1-0.9,1.5s-0.8,0.7-1.3,1c-0.5,0.2-1.1,0.3-1.8,0.3
		c-0.7,0-1.3-0.1-1.8-0.3s-1-0.5-1.3-1c-0.4-0.4-0.6-0.9-0.8-1.5s-0.3-1.2-0.3-1.9s0.1-1.4,0.3-1.9c0.2-0.6,0.5-1.1,0.9-1.5
		s0.8-0.7,1.3-1s1.1-0.3,1.8-0.3c0.7,0,1.3,0.1,1.8,0.3s1,0.5,1.3,1c0.4,0.4,0.6,0.9,0.8,1.5S468.6,155,468.6,155.7z M467,155.7
		c0-0.6-0.1-1-0.2-1.5c-0.1-0.4-0.3-0.8-0.6-1.1s-0.5-0.5-0.9-0.7c-0.3-0.2-0.7-0.2-1.1-0.2s-0.8,0.1-1.1,0.2s-0.6,0.4-0.9,0.7
		s-0.4,0.7-0.6,1.1c-0.1,0.4-0.2,0.9-0.2,1.5c0,0.5,0.1,1,0.2,1.5c0.1,0.4,0.3,0.8,0.6,1.1c0.2,0.3,0.5,0.5,0.9,0.7s0.7,0.2,1.1,0.2
		s0.8-0.1,1.1-0.2s0.6-0.4,0.9-0.7s0.4-0.7,0.6-1.1C467,156.7,467,156.2,467,155.7z"/>
	<path class="st34" d="M476.5,147.5v11.2h6.2v1.4H475v-12.6L476.5,147.5L476.5,147.5z"/>
	<path class="st34" d="M490.1,159.2L490.1,159.2c-0.2,0.2-0.3,0.3-0.5,0.4c-0.2,0.1-0.4,0.3-0.6,0.4c-0.2,0.1-0.5,0.2-0.8,0.3
		s-0.6,0.1-0.9,0.1c-0.4,0-0.8-0.1-1.2-0.2c-0.4-0.1-0.7-0.3-0.9-0.6c-0.3-0.2-0.5-0.6-0.6-0.9c-0.1-0.4-0.2-0.8-0.2-1.2
		s0.1-0.8,0.2-1.2s0.4-0.7,0.7-0.9c0.3-0.2,0.6-0.4,1-0.6c0.4-0.1,0.9-0.2,1.3-0.2c0.5,0,0.9,0,1.3,0.1s0.7,0.2,1.1,0.3l0,0v-0.6
		c0-0.2,0-0.5,0-0.7s-0.1-0.4-0.2-0.5c-0.2-0.3-0.4-0.6-0.8-0.8s-0.8-0.3-1.5-0.3c-0.5,0-0.9,0-1.3,0.1s-0.8,0.2-1.2,0.4v-1.2
		c0.2-0.1,0.3-0.1,0.5-0.2c0.2-0.1,0.4-0.1,0.6-0.2c0.2,0,0.5-0.1,0.7-0.1c0.3,0,0.5,0,0.8,0c0.9,0,1.6,0.2,2.2,0.5s1,0.7,1.2,1.3
		c0.1,0.2,0.2,0.4,0.2,0.7c0,0.2,0.1,0.5,0.1,0.8v6h-1.2L490.1,159.2z M490,156.2c-0.3-0.1-0.6-0.1-1-0.2c-0.4-0.1-0.8-0.1-1.2-0.1
		c-0.6,0-1.1,0.1-1.5,0.4c-0.3,0.3-0.5,0.7-0.5,1.2c0,0.3,0,0.5,0.1,0.7s0.2,0.4,0.4,0.5c0.2,0.1,0.3,0.2,0.5,0.3s0.4,0.1,0.7,0.1
		c0.3,0,0.6,0,0.9-0.1s0.5-0.2,0.7-0.3s0.4-0.3,0.5-0.4c0.1-0.1,0.3-0.2,0.3-0.3v-1.8H490z"/>
	<path class="st34" d="M495.3,153.6c0,0.2,0.1,0.4,0.2,0.6c0.1,0.2,0.2,0.3,0.4,0.4c0.2,0.1,0.4,0.2,0.6,0.2
		c0.2,0.1,0.5,0.1,0.7,0.2c0.3,0.1,0.7,0.2,1,0.2c0.3,0.1,0.6,0.2,0.8,0.4s0.5,0.4,0.6,0.7c0.2,0.3,0.2,0.7,0.2,1.2
		s-0.1,0.9-0.3,1.2c-0.2,0.3-0.4,0.6-0.7,0.9c-0.3,0.2-0.7,0.4-1.2,0.5s-0.9,0.2-1.5,0.2c-0.3,0-0.6,0-0.9-0.1
		c-0.3,0-0.5-0.1-0.7-0.1s-0.4-0.1-0.5-0.2c-0.1-0.1-0.3-0.1-0.4-0.2v-1.2c0.4,0.2,0.7,0.3,1.1,0.4c0.4,0.1,0.8,0.1,1.2,0.1
		c0.3,0,0.7,0,0.9-0.1c0.3-0.1,0.5-0.2,0.7-0.3s0.4-0.3,0.5-0.5s0.2-0.4,0.2-0.6c0-0.3,0-0.5-0.1-0.6s-0.2-0.3-0.4-0.4
		c-0.2-0.1-0.4-0.2-0.6-0.3s-0.4-0.1-0.7-0.2c-0.3-0.1-0.6-0.2-1-0.2s-0.6-0.2-0.9-0.4s-0.5-0.4-0.6-0.7c-0.2-0.3-0.2-0.7-0.2-1.1
		c0-0.5,0.1-0.9,0.3-1.2c0.2-0.3,0.4-0.6,0.7-0.9c0.3-0.2,0.6-0.4,1-0.5s0.8-0.2,1.2-0.2c0.5,0,1,0,1.4,0.1s0.8,0.2,1.2,0.4v1.2
		c-0.4-0.1-0.7-0.3-1.1-0.4c-0.4-0.1-0.8-0.1-1.2-0.1c-0.3,0-0.6,0-0.9,0.1c-0.2,0.1-0.4,0.2-0.6,0.3s-0.3,0.3-0.3,0.4
		C495.4,153.2,495.3,153.4,495.3,153.6z"/>
	<path class="st34" d="M506.4,159.1c0.5,0,0.9,0,1.3-0.1s0.8-0.2,1.2-0.3v1.2c-0.3,0.2-0.7,0.3-1.2,0.4c-0.5,0.1-1,0.1-1.5,0.1
		c-0.6,0-1.2-0.1-1.8-0.2c-0.6-0.2-1.1-0.4-1.5-0.8c-0.4-0.4-0.7-0.8-1-1.4c-0.2-0.6-0.3-1.3-0.3-2.1s0.1-1.5,0.3-2.1
		c0.2-0.6,0.5-1.1,0.9-1.5s0.8-0.7,1.3-0.9s1-0.3,1.5-0.3s1,0.1,1.4,0.2c0.4,0.2,0.8,0.4,1.1,0.8c0.3,0.4,0.6,0.8,0.8,1.4
		c0.2,0.6,0.3,1.2,0.3,2c0,0.1,0,0.1,0,0.2c0,0.1,0,0.2,0,0.4H503c0,0.6,0.1,1.1,0.3,1.5c0.2,0.4,0.4,0.7,0.7,1
		c0.3,0.2,0.6,0.4,1.1,0.5C505.5,159.1,505.9,159.1,506.4,159.1z M505.6,152.2c-0.3,0-0.7,0.1-0.9,0.2c-0.3,0.1-0.5,0.3-0.8,0.5
		s-0.4,0.5-0.5,0.8s-0.2,0.6-0.2,1h4.6c0-0.4,0-0.7-0.1-1s-0.2-0.6-0.4-0.8s-0.4-0.4-0.7-0.5S505.9,152.2,505.6,152.2z"/>
	<path class="st34" d="M516.6,152.4L516.6,152.4c-0.4,0-0.8,0-1.1,0.1s-0.6,0.2-0.9,0.3s-0.6,0.3-0.8,0.5s-0.4,0.4-0.6,0.7v6.2h-1.5
		v-9h1.1l0.3,1.4l0,0c0.1-0.2,0.3-0.4,0.5-0.7c0.2-0.2,0.4-0.4,0.7-0.5c0.3-0.2,0.6-0.3,0.9-0.4s0.6-0.1,1-0.1c0.1,0,0.1,0,0.2,0
		c0.1,0,0.1,0,0.2,0L516.6,152.4L516.6,152.4z"/>
</g>
</svg>
