<?xml version="1.0" encoding="utf-8"?>
<!-- Generator: Adobe Illustrator 25.2.1, SVG Export Plug-In . SVG Version: 6.00 Build 0)  -->
<svg version="1.1" id="Layer_1" xmlns="http://www.w3.org/2000/svg" xmlns:xlink="http://www.w3.org/1999/xlink" x="0px" y="0px"
	 viewBox="0 0 304.5 300" style="enable-background:new 0 0 304.5 300;" xml:space="preserve">
<style type="text/css">
	.st0{fill:none;}
	.st1{clip-path:url(#SVGID_2_);}
	.st2{fill-rule:evenodd;clip-rule:evenodd;fill:#80358B;}
	.st3{fill-rule:evenodd;clip-rule:evenodd;fill:#915A9D;}
	.st4{fill-rule:evenodd;clip-rule:evenodd;fill:#8E1783;}
	.st5{fill-rule:evenodd;clip-rule:evenodd;fill:#9C125D;}
	.st6{fill-rule:evenodd;clip-rule:evenodd;fill:#9D132D;}
	.st7{fill-rule:evenodd;clip-rule:evenodd;fill:#C91434;}
	.st8{fill-rule:evenodd;clip-rule:evenodd;fill:#DE214D;}
	.st9{fill-rule:evenodd;clip-rule:evenodd;fill:#DE2C58;}
	.st10{fill-rule:evenodd;clip-rule:evenodd;fill:#DF2D46;}
	.st11{fill-rule:evenodd;clip-rule:evenodd;fill:#E2402F;}
	.st12{fill-rule:evenodd;clip-rule:evenodd;fill:#EB8023;}
	.st13{fill-rule:evenodd;clip-rule:evenodd;fill:#EB8126;}
	.st14{fill-rule:evenodd;clip-rule:evenodd;fill:#F6B500;}
	.st15{fill-rule:evenodd;clip-rule:evenodd;fill:#F5CA00;}
	.st16{fill-rule:evenodd;clip-rule:evenodd;fill:#EDE300;}
	.st17{fill-rule:evenodd;clip-rule:evenodd;fill:#FCDC00;}
	.st18{fill-rule:evenodd;clip-rule:evenodd;fill:#D4CF00;}
	.st19{fill-rule:evenodd;clip-rule:evenodd;fill:#CFD500;}
	.st20{fill-rule:evenodd;clip-rule:evenodd;fill:#A2BE09;}
	.st21{fill-rule:evenodd;clip-rule:evenodd;fill:#A5BD06;}
	.st22{fill-rule:evenodd;clip-rule:evenodd;fill:#6CAF26;}
	.st23{fill-rule:evenodd;clip-rule:evenodd;fill:#3BA535;}
	.st24{fill-rule:evenodd;clip-rule:evenodd;fill:#009940;}
	.st25{fill-rule:evenodd;clip-rule:evenodd;fill:#00894E;}
	.st26{fill-rule:evenodd;clip-rule:evenodd;fill:#009DB2;}
	.st27{fill-rule:evenodd;clip-rule:evenodd;fill:#00A0C6;}
	.st28{fill-rule:evenodd;clip-rule:evenodd;fill:#005099;}
	.st29{fill-rule:evenodd;clip-rule:evenodd;fill:#004394;}
	.st30{fill-rule:evenodd;clip-rule:evenodd;fill:#453D75;}
	.st31{fill-rule:evenodd;clip-rule:evenodd;fill:#948BAB;}
	.st32{fill-rule:evenodd;clip-rule:evenodd;fill:#9595B9;}
	.st33{fill-rule:evenodd;clip-rule:evenodd;fill:#CCCCCC;}
	.st34{stroke:#000000;stroke-width:0.9915;stroke-linejoin:round;stroke-miterlimit:6.3967;}
	.st35{stroke:#000000;stroke-width:0.53;stroke-linejoin:round;stroke-miterlimit:2;}
</style>
<g id="formadeO_1_" transform="matrix(3.07215,0,0,3.28619,75.8729,-54.4561)">
	<path class="st0" d="M68.3,38.8c-9.2-12.2-24.7-20.1-42.5-20.1c-28.4,0-48.2,18-48.2,43.2S-5.4,105,23,105
		c19.1,0,35.3-9.1,44.1-22.8c-7.7,8.6-20.3,14-33.5,14c-23.2,0-35.8-14.3-35.8-35.1C-2.2,40.4,13.2,26,36.3,26
		C48.6,26,60.6,31.1,68.3,38.8"/>
	<g>
		<g>
			<defs>
				<path id="SVGID_1_" d="M68.3,38.8c-9.2-12.2-24.7-20.1-42.5-20.1c-28.4,0-48.2,18-48.2,43.2S-5.4,105,23,105
					c19.1,0,35.3-9.1,44.1-22.8c-7.7,8.6-20.3,14-33.5,14c-23.2,0-35.8-14.3-35.8-35.1C-2.2,40.4,13.2,26,36.3,26
					C48.6,26,60.6,31.1,68.3,38.8"/>
			</defs>
			<clipPath id="SVGID_2_">
				<use xlink:href="#SVGID_1_"  style="overflow:visible;"/>
			</clipPath>
			<g class="st1">
				<g transform="matrix(1.05045,0,0,0.98414,-18.3617,-0.334618)">
					<path class="st2" d="M77.9,86.5l1.2,1.5l1.5-2.1L79.7,85L77.9,86.5z"/>
				</g>
				<g transform="matrix(1.05045,0,0,0.98414,-18.3617,-0.334618)">
					<path class="st3" d="M80,84.8l0.8,0.8l0.8-1.6l-0.8-0.4L80,84.8z"/>
				</g>
				<g transform="matrix(1.05045,0,0,0.98414,-18.3617,-0.334618)">
					<path class="st4" d="M75.9,88.4l0.5,2.6l2.2-2.5l-1.1-1.7L75.9,88.4z"/>
				</g>
				<g transform="matrix(1.05045,0,0,0.98414,-18.3617,-0.334618)">
					<path class="st5" d="M75.4,88.7l0.7,2.9l-2.4,2.5l-1.2-3.3L75.4,88.7z"/>
				</g>
				<g transform="matrix(1.05045,0,0,0.98414,-18.3617,-0.334618)">
					<path class="st6" d="M72.1,91.1l1.2,3.6l-4.8,3.4l-0.9-4.7L72.1,91.1z"/>
				</g>
				<g transform="matrix(1.05045,0,0,0.98414,-18.3617,-0.334618)">
					<path class="st7" d="M67.2,93.4l0.9,5.6l-4.8,4.6L62,94.5L67.2,93.4z"/>
				</g>
				<g transform="matrix(1.05045,0,0,0.98414,-18.3617,-0.334618)">
					<path class="st8" d="M61.2,95.4l1,8.4l-4.9,1.6L57.2,96L61.2,95.4z"/>
				</g>
				<g transform="matrix(1.05045,0,0,0.98414,-18.3617,-0.334618)">
					<path class="st9" d="M56.3,95.9l-0.4,10.7l-6.6,0.6l1.8-11.3L56.3,95.9L56.3,95.9z"/>
				</g>
				<g transform="matrix(1.05045,0,0,0.98414,-18.3617,-0.334618)">
					<path class="st10" d="M50.1,95.4l-2,12.1l-7.7,0.7l5.3-11.4L50.1,95.4z"/>
				</g>
				<g transform="matrix(1.05045,0,0,0.98414,-18.3617,-0.334618)">
					<path class="st11" d="M44.7,96.6l-5.4,11.5l-8.4-0.8l8.3-12.1L44.7,96.6z"/>
				</g>
				<g transform="matrix(1.05045,0,0,0.98414,-18.3617,-0.334618)">
					<path class="st12" d="M38.3,94.5l-8.6,12.6l-8.3-2.2l11.1-13L38.3,94.5z"/>
				</g>
				<g transform="matrix(1.05045,0,0,0.98414,-18.3617,-0.334618)">
					<path class="st13" d="M31.6,91.3l-11.4,13.4l-7.5-5l14.4-10.9L31.6,91.3z"/>
				</g>
				<g transform="matrix(1.05045,0,0,0.98414,-18.3617,-0.334618)">
					<path class="st14" d="M26.3,88.3L11.6,99.5l-6.1-6.1l18-9.3L26.3,88.3z"/>
				</g>
				<g transform="matrix(1.05045,0,0,0.98414,-18.3617,-0.334618)">
					<path class="st15" d="M23.1,83.5l-18.4,9l-5.7-8l20.8-6.2L23.1,83.5z"/>
				</g>
				<g transform="matrix(1.05045,0,0,0.98414,-18.3617,-0.334618)">
					<path class="st16" d="M19.2,77.7l-20.6,6l-3.7-8.4L17,71.8L19.2,77.7z"/>
				</g>
				<g transform="matrix(1.05045,0,0,0.98414,-18.3617,-0.334618)">
					<path class="st17" d="M17,71l-22.3,3.5l-1.9-9.6l23.5-0.1L17,71z"/>
				</g>
				<g transform="matrix(1.05045,0,0,0.98414,-18.3617,-0.334618)">
					<path class="st18" d="M16.3,63.8l-23,0.1l0.1-8.8l22.7,2.4L16.3,63.8z"/>
				</g>
				<g transform="matrix(1.05045,0,0,0.98414,-18.3617,-0.334618)">
					<path class="st19" d="M16,56.8l-22-2.3l2.8-9.7l20.9,6.5L16,56.8z"/>
				</g>
				<g transform="matrix(1.05045,0,0,0.98414,-18.3617,-0.334618)">
					<path class="st20" d="M17.7,50.3l-20.5-6.2L3,37l17.3,7.8L17.7,50.3z"/>
				</g>
				<g transform="matrix(1.05045,0,0,0.98414,-18.3617,-0.334618)">
					<path class="st21" d="M20.8,43.7L3.5,36l6.6-7.1L25,38.8L20.8,43.7z"/>
				</g>
				<g transform="matrix(1.05045,0,0,0.98414,-18.3617,-0.334618)">
					<path class="st22" d="M25.5,37.8l-14.8-9.5l6.7-5l12.5,10.8L25.5,37.8z"/>
				</g>
				<g transform="matrix(1.05045,0,0,0.98414,-18.3617,-0.334618)">
					<path class="st23" d="M29.9,33.6l-11-10.3l7.6-4L34.4,33L29.9,33.6z"/>
				</g>
				<g transform="matrix(1.05045,0,0,0.98414,-18.3617,-0.334618)">
					<path class="st24" d="M35.1,32.5l-7.5-13.2l7.4-1.5l6,12.5L35.1,32.5z"/>
				</g>
				<g transform="matrix(1.05045,0,0,0.98414,-18.3617,-0.334618)">
					<path class="st25" d="M41.7,30.1L36,17.7l8-0.7l3.6,12L41.7,30.1z"/>
				</g>
				<g transform="matrix(1.05045,0,0,0.98414,-18.3617,-0.334618)">
					<path class="st26" d="M48.3,28.9l-3.2-10.6l7.5,0.3l1.3,10.2L48.3,28.9z"/>
				</g>
				<g transform="matrix(1.05045,0,0,0.98414,-18.3617,-0.334618)">
					<path class="st27" d="M54.7,28.4l-1.1-9.6l6.9,1.8l-0.3,8.5L54.7,28.4z"/>
				</g>
				<g transform="matrix(1.05045,0,0,0.98414,-18.3617,-0.334618)">
					<path class="st28" d="M60.9,29.2l0.3-8.4l5.7,4.1l-1.1,5.3L60.9,29.2z"/>
				</g>
				<g transform="matrix(1.05045,0,0,0.98414,-18.3617,-0.334618)">
					<path class="st29" d="M66.5,30.6l1-5.7l4.4,3l-1.6,4.2L66.5,30.6z"/>
				</g>
				<g transform="matrix(1.05045,0,0,0.98414,-18.3617,-0.334618)">
					<path class="st30" d="M72.3,28.4l-1.5,3.9l2.9,1.8l1.7-3.1L72.3,28.4z"/>
				</g>
				<g transform="matrix(1.05045,0,0,0.98414,-18.3617,-0.334618)">
					<path class="st31" d="M75.7,31.5l-1.5,2.7l2.7,2.1l1.7-2.5L75.7,31.5z"/>
				</g>
				<g transform="matrix(1.05045,0,0,0.98414,-18.3617,-0.334618)">
					<path class="st32" d="M79.2,34.5l-1.9,1.9l2.4,1.8c0,0,1.7-1.3,1.7-1.4C81.5,36.7,79.2,34.5,79.2,34.5z"/>
				</g>
				<g transform="matrix(1.05045,0,0,0.98414,-18.3617,-0.334618)">
					<path class="st33" d="M80.1,38.4l1.5-1.4l1.3,2.4L81.4,40L80.1,38.4z"/>
				</g>
			</g>
		</g>
	</g>
</g>
<g transform="matrix(3.19834,0,0,3.19823,-20.381,-46.5395)">
	<path class="st34" d="M65.5,29.1c4.3,0,8.5,0.6,12.4,1.9s7.4,3.4,10.3,6.3c3,2.9,5.1,6.2,6.4,9.8s1.9,7.5,1.9,11.8
		c0,4.5-0.7,8.9-2.1,13c-1.4,4.2-3.6,7.7-6.5,10.6s-6.6,5.1-10.8,6.5c-4.3,1.5-8.8,2.2-13.5,2.2c-4.5,0-8.8-0.7-12.9-2
		s-7.6-3.4-10.6-6.1c-2.9-2.7-5-6-6.3-9.7s-1.9-7.7-1.9-11.8c0-4.6,0.8-9,2.3-13.2S38,40.6,41,37.7c3-2.9,6.7-5.1,11-6.5
		C56.3,29.8,60.8,29.1,65.5,29.1z M65.1,35c-3.5,0-6.9,0.6-10,1.7c-3.1,1.1-5.9,2.9-8.2,5.4c-2.3,2.5-4.1,5.4-5.2,8.8
		c-1.1,3.4-1.7,6.9-1.7,10.6c0,3.4,0.6,6.7,1.7,9.8c1.1,3.1,2.8,5.7,4.9,7.8c2.2,2.1,4.8,3.6,7.8,4.7c3.1,1,6.2,1.5,9.6,1.5
		c3.4,0,6.7-0.5,9.8-1.6c3.1-1.1,5.8-2.8,8-5.2c2.2-2.4,3.9-5.2,5-8.6s1.6-6.9,1.6-10.5c0-3.5-0.5-6.8-1.5-9.9
		c-1-3.2-2.6-5.9-4.7-8.1c-2.2-2.2-4.7-3.9-7.7-4.9C71.5,35.5,68.4,35,65.1,35z"/>
</g>
<g transform="matrix(1.85914,0,0,1.93122,-146.297,113.112)">
	<path class="st35" d="M161.8,60.4l0.7-13.4l1.4-34.5l0.2-7.4c0-1.2,0-2.3,0-3.5v-4.8c3.7,0.1,6.7,0.1,8.9,0.1c1.4,0,3.5,0,6.3-0.1
		c2.9-0.1,5-0.1,6.4-0.1c3.7,0,6.5,0.3,8.3,0.8s3.4,1.5,4.8,2.7c1.4,1.3,2.5,2.9,3.3,4.7c0.8,1.9,1.2,4,1.2,6.2c0,3.7-0.9,7-2.8,10
		c-1.9,3-4.4,5.2-7.7,6.6c-3.2,1.5-6.9,2.2-10.9,2.2c-2.1,0-4.5-0.2-7.1-0.7c-0.4-2-0.9-3.9-1.5-5.5c2.3,0.4,4.5,0.7,6.7,0.7
		c2.1,0,4.1-0.2,6.1-0.7c1.9-0.5,3.6-1.3,5-2.4s2.5-2.5,3.2-4.3c0.8-1.7,1.1-3.5,1.1-5.4c0-1.5-0.3-2.9-0.8-4.2
		c-0.6-1.3-1.3-2.3-2.3-3s-2.1-1.3-3.4-1.5c-1.2-0.3-3.1-0.4-5.4-0.4h-3.7l-4.6,0.1h-3.4c-0.4,6.4-0.6,12.3-0.7,17.5l-0.7,18.2
		c-0.2,6.9-0.3,11.5-0.3,13.8v8.4l-4.1-0.1C165.5,60.4,164.1,60.4,161.8,60.4z"/>
</g>
</svg>
