<?xml version="1.0" encoding="utf-8"?>
<!-- Generator: Adobe Illustrator 25.2.1, SVG Export Plug-In . SVG Version: 6.00 Build 0)  -->
<svg version="1.1" id="Layer_1" xmlns="http://www.w3.org/2000/svg" xmlns:xlink="http://www.w3.org/1999/xlink" x="0px" y="0px"
	 viewBox="0 0 282.8 283.6" style="enable-background:new 0 0 282.8 283.6;" xml:space="preserve">
<style type="text/css">
	.st0{fill:none;}
	.st1{clip-path:url(#SVGID_2_);}
	.st2{fill-rule:evenodd;clip-rule:evenodd;fill:#80358B;}
	.st3{fill-rule:evenodd;clip-rule:evenodd;fill:#915A9D;}
	.st4{fill-rule:evenodd;clip-rule:evenodd;fill:#8E1783;}
	.st5{fill-rule:evenodd;clip-rule:evenodd;fill:#9C125D;}
	.st6{fill-rule:evenodd;clip-rule:evenodd;fill:#9D132D;}
	.st7{fill-rule:evenodd;clip-rule:evenodd;fill:#C91434;}
	.st8{fill-rule:evenodd;clip-rule:evenodd;fill:#DE214D;}
	.st9{fill-rule:evenodd;clip-rule:evenodd;fill:#DE2C58;}
	.st10{fill-rule:evenodd;clip-rule:evenodd;fill:#DF2D46;}
	.st11{fill-rule:evenodd;clip-rule:evenodd;fill:#E2402F;}
	.st12{fill-rule:evenodd;clip-rule:evenodd;fill:#EB8023;}
	.st13{fill-rule:evenodd;clip-rule:evenodd;fill:#EB8126;}
	.st14{fill-rule:evenodd;clip-rule:evenodd;fill:#F6B500;}
	.st15{fill-rule:evenodd;clip-rule:evenodd;fill:#F5CA00;}
	.st16{fill-rule:evenodd;clip-rule:evenodd;fill:#EDE300;}
	.st17{fill-rule:evenodd;clip-rule:evenodd;fill:#FCDC00;}
	.st18{fill-rule:evenodd;clip-rule:evenodd;fill:#D4CF00;}
	.st19{fill-rule:evenodd;clip-rule:evenodd;fill:#CFD500;}
	.st20{fill-rule:evenodd;clip-rule:evenodd;fill:#A2BE09;}
	.st21{fill-rule:evenodd;clip-rule:evenodd;fill:#A5BD06;}
	.st22{fill-rule:evenodd;clip-rule:evenodd;fill:#6CAF26;}
	.st23{fill-rule:evenodd;clip-rule:evenodd;fill:#3BA535;}
	.st24{fill-rule:evenodd;clip-rule:evenodd;fill:#009940;}
	.st25{fill-rule:evenodd;clip-rule:evenodd;fill:#00894E;}
	.st26{fill-rule:evenodd;clip-rule:evenodd;fill:#009DB2;}
	.st27{fill-rule:evenodd;clip-rule:evenodd;fill:#00A0C6;}
	.st28{fill-rule:evenodd;clip-rule:evenodd;fill:#005099;}
	.st29{fill-rule:evenodd;clip-rule:evenodd;fill:#004394;}
	.st30{fill-rule:evenodd;clip-rule:evenodd;fill:#453D75;}
	.st31{fill-rule:evenodd;clip-rule:evenodd;fill:#948BAB;}
	.st32{fill-rule:evenodd;clip-rule:evenodd;fill:#9595B9;}
	.st33{fill-rule:evenodd;clip-rule:evenodd;fill:#CCCCCC;}
	.st34{stroke:#000000;stroke-width:3.1712;stroke-linejoin:round;stroke-miterlimit:20.4588;}
	.st35{stroke:#000000;stroke-width:0.53;stroke-linejoin:round;stroke-miterlimit:2;}
</style>
<g id="formadeO_1_" transform="matrix(3.07215,0,0,3.28619,75.8729,-54.4561)">
	<path class="st0" d="M66,36.7c-9.2-12.2-24.7-20.1-42.5-20.1c-28.4,0-48.2,18-48.2,43.2s17,43.1,45.4,43.1
		c19.1,0,35.3-9.1,44.1-22.8c-7.7,8.6-20.3,14-33.5,14C8.1,94.1-4.5,79.8-4.5,59c0-20.7,15.4-35.1,38.5-35.1
		C46.3,23.9,58.3,29,66,36.7"/>
	<g>
		<g>
			<g>
				<defs>
					<path id="SVGID_1_" d="M66,36.7c-9.2-12.2-24.7-20.1-42.5-20.1c-28.4,0-48.2,18-48.2,43.2s17,43.1,45.4,43.1
						c19.1,0,35.3-9.1,44.1-22.8c-7.7,8.6-20.3,14-33.5,14C8.1,94.1-4.5,79.8-4.5,59c0-20.7,15.4-35.1,38.5-35.1
						C46.3,23.9,58.3,29,66,36.7"/>
				</defs>
				<clipPath id="SVGID_2_">
					<use xlink:href="#SVGID_1_"  style="overflow:visible;"/>
				</clipPath>
				<g class="st1">
					<g transform="matrix(1.05045,0,0,0.98414,-18.3617,-0.334618)">
						<path class="st2" d="M75.7,84.3l1.2,1.5l1.5-2.1l-0.9-0.9L75.7,84.3z"/>
					</g>
					<g transform="matrix(1.05045,0,0,0.98414,-18.3617,-0.334618)">
						<path class="st3" d="M77.8,82.6l0.8,0.8l0.8-1.6l-0.8-0.4L77.8,82.6z"/>
					</g>
					<g transform="matrix(1.05045,0,0,0.98414,-18.3617,-0.334618)">
						<path class="st4" d="M73.7,86.2l0.5,2.6l2.2-2.5l-1.1-1.7L73.7,86.2z"/>
					</g>
					<g transform="matrix(1.05045,0,0,0.98414,-18.3617,-0.334618)">
						<path class="st5" d="M73.2,86.5l0.7,2.9l-2.4,2.5l-1.2-3.3L73.2,86.5z"/>
					</g>
					<g transform="matrix(1.05045,0,0,0.98414,-18.3617,-0.334618)">
						<path class="st6" d="M69.9,88.9l1.2,3.6l-4.8,3.4l-0.9-4.7L69.9,88.9z"/>
					</g>
					<g transform="matrix(1.05045,0,0,0.98414,-18.3617,-0.334618)">
						<path class="st7" d="M65,91.2l0.9,5.6l-4.8,4.6l-1.3-9.1L65,91.2z"/>
					</g>
					<g transform="matrix(1.05045,0,0,0.98414,-18.3617,-0.334618)">
						<path class="st8" d="M59,93.2l1,8.4l-4.9,1.6L55,93.8L59,93.2z"/>
					</g>
					<g transform="matrix(1.05045,0,0,0.98414,-18.3617,-0.334618)">
						<path class="st9" d="M54.1,93.7l-0.4,10.7l-6.6,0.6l1.8-11.3L54.1,93.7L54.1,93.7z"/>
					</g>
					<g transform="matrix(1.05045,0,0,0.98414,-18.3617,-0.334618)">
						<path class="st10" d="M47.9,93.2l-2,12.1l-7.7,0.7l5.3-11.4L47.9,93.2z"/>
					</g>
					<g transform="matrix(1.05045,0,0,0.98414,-18.3617,-0.334618)">
						<path class="st11" d="M42.5,94.4l-5.4,11.5l-8.4-0.8L37,93L42.5,94.4z"/>
					</g>
					<g transform="matrix(1.05045,0,0,0.98414,-18.3617,-0.334618)">
						<path class="st12" d="M36.1,92.3l-8.6,12.6l-8.3-2.2l11.1-13L36.1,92.3z"/>
					</g>
					<g transform="matrix(1.05045,0,0,0.98414,-18.3617,-0.334618)">
						<path class="st13" d="M29.4,89.1L18,102.5l-7.5-5l14.4-10.9L29.4,89.1z"/>
					</g>
					<g transform="matrix(1.05045,0,0,0.98414,-18.3617,-0.334618)">
						<path class="st14" d="M24.1,86.1L9.4,97.3l-6.1-6.1l18-9.3L24.1,86.1z"/>
					</g>
					<g transform="matrix(1.05045,0,0,0.98414,-18.3617,-0.334618)">
						<path class="st15" d="M20.9,81.3l-18.4,9l-5.7-8l20.8-6.2L20.9,81.3z"/>
					</g>
					<g transform="matrix(1.05045,0,0,0.98414,-18.3617,-0.334618)">
						<path class="st16" d="M17,75.5l-20.6,6l-3.7-8.4l22.1-3.5L17,75.5z"/>
					</g>
					<g transform="matrix(1.05045,0,0,0.98414,-18.3617,-0.334618)">
						<path class="st17" d="M14.8,68.8l-22.3,3.5l-1.9-9.6l23.5-0.1L14.8,68.8z"/>
					</g>
					<g transform="matrix(1.05045,0,0,0.98414,-18.3617,-0.334618)">
						<path class="st18" d="M14.1,61.6l-23,0.1l0.1-8.8l22.7,2.4L14.1,61.6z"/>
					</g>
					<g transform="matrix(1.05045,0,0,0.98414,-18.3617,-0.334618)">
						<path class="st19" d="M13.8,54.6l-22-2.3l2.8-9.7l20.9,6.5L13.8,54.6z"/>
					</g>
					<g transform="matrix(1.05045,0,0,0.98414,-18.3617,-0.334618)">
						<path class="st20" d="M15.5,48.1L-5,41.9l5.8-7.1l17.3,7.8L15.5,48.1z"/>
					</g>
					<g transform="matrix(1.05045,0,0,0.98414,-18.3617,-0.334618)">
						<path class="st21" d="M18.6,41.5L1.3,33.8l6.6-7.1l14.9,9.9L18.6,41.5z"/>
					</g>
					<g transform="matrix(1.05045,0,0,0.98414,-18.3617,-0.334618)">
						<path class="st22" d="M23.3,35.6L8.5,26.1l6.7-5l12.5,10.8L23.3,35.6z"/>
					</g>
					<g transform="matrix(1.05045,0,0,0.98414,-18.3617,-0.334618)">
						<path class="st23" d="M27.7,31.4l-11-10.3l7.6-4l7.9,13.7L27.7,31.4z"/>
					</g>
					<g transform="matrix(1.05045,0,0,0.98414,-18.3617,-0.334618)">
						<path class="st24" d="M32.9,30.3l-7.5-13.2l7.4-1.5l6,12.5L32.9,30.3z"/>
					</g>
					<g transform="matrix(1.05045,0,0,0.98414,-18.3617,-0.334618)">
						<path class="st25" d="M39.5,27.9l-5.7-12.4l8-0.7l3.6,12L39.5,27.9z"/>
					</g>
					<g transform="matrix(1.05045,0,0,0.98414,-18.3617,-0.334618)">
						<path class="st26" d="M46.1,26.7l-3.2-10.6l7.5,0.3l1.3,10.2L46.1,26.7z"/>
					</g>
					<g transform="matrix(1.05045,0,0,0.98414,-18.3617,-0.334618)">
						<path class="st27" d="M52.5,26.2l-1.1-9.6l6.9,1.8L58,26.9L52.5,26.2z"/>
					</g>
					<g transform="matrix(1.05045,0,0,0.98414,-18.3617,-0.334618)">
						<path class="st28" d="M58.7,27l0.3-8.4l5.7,4.1L63.6,28L58.7,27z"/>
					</g>
					<g transform="matrix(1.05045,0,0,0.98414,-18.3617,-0.334618)">
						<path class="st29" d="M64.3,28.4l1-5.7l4.4,3l-1.6,4.2L64.3,28.4z"/>
					</g>
					<g transform="matrix(1.05045,0,0,0.98414,-18.3617,-0.334618)">
						<path class="st30" d="M70.1,26.2l-1.5,3.9l2.9,1.8l1.7-3.1L70.1,26.2z"/>
					</g>
					<g transform="matrix(1.05045,0,0,0.98414,-18.3617,-0.334618)">
						<path class="st31" d="M73.5,29.3L72,32l2.7,2.1l1.7-2.5L73.5,29.3z"/>
					</g>
					<g transform="matrix(1.05045,0,0,0.98414,-18.3617,-0.334618)">
						<path class="st32" d="M77,32.3l-1.9,1.9l2.4,1.8c0,0,1.7-1.3,1.7-1.4C79.3,34.5,77,32.3,77,32.3z"/>
					</g>
					<g transform="matrix(1.05045,0,0,0.98414,-18.3617,-0.334618)">
						<path class="st33" d="M77.9,36.2l1.5-1.4l1.3,2.4l-1.5,0.6L77.9,36.2z"/>
					</g>
				</g>
			</g>
		</g>
	</g>
</g>
<g transform="matrix(3.19834,0,0,3.19823,-20.381,-46.5395)">
	<path class="st34" d="M63.3,26.9c4.3,0,8.5,0.6,12.4,1.9s7.4,3.4,10.3,6.3c3,2.9,5.1,6.2,6.4,9.8s1.9,7.5,1.9,11.8
		c0,4.5-0.7,8.9-2.1,13c-1.4,4.2-3.6,7.7-6.5,10.6s-6.6,5.1-10.8,6.5c-4.3,1.5-8.8,2.2-13.5,2.2c-4.5,0-8.8-0.7-12.9-2
		s-7.6-3.4-10.6-6.1c-2.9-2.7-5-6-6.3-9.7s-1.9-7.7-1.9-11.8c0-4.6,0.8-9,2.3-13.2s3.8-7.8,6.8-10.7c3-2.9,6.7-5.1,11-6.5
		S58.6,26.9,63.3,26.9z M62.9,32.8c-3.5,0-6.9,0.6-10,1.7c-3.1,1.1-5.9,2.9-8.2,5.4s-4.1,5.4-5.2,8.8c-1.1,3.4-1.7,6.9-1.7,10.6
		c0,3.4,0.6,6.7,1.7,9.8c1.1,3.1,2.8,5.7,4.9,7.8c2.2,2.1,4.8,3.6,7.8,4.7c3.1,1,6.2,1.5,9.6,1.5c3.4,0,6.7-0.5,9.8-1.6
		c3.1-1.1,5.8-2.8,8-5.2c2.2-2.4,3.9-5.2,5-8.6s1.6-6.9,1.6-10.5c0-3.5-0.5-6.8-1.5-9.9c-1-3.2-2.6-5.9-4.7-8.1
		c-2.2-2.2-4.7-3.9-7.7-4.9C69.3,33.3,66.2,32.8,62.9,32.8z"/>
</g>
<g transform="matrix(1.85914,0,0,1.93122,-146.297,113.112)">
	<path class="st35" d="M158,56.8l0.7-13.4l1.4-34.5l0.2-7.4c0-1.2,0-2.3,0-3.5v-4.8c3.7,0.1,6.7,0.1,8.9,0.1c1.4,0,3.5,0,6.3-0.1
		c2.9-0.1,5-0.1,6.4-0.1c3.7,0,6.5,0.3,8.3,0.8s3.4,1.5,4.8,2.7c1.4,1.3,2.5,2.9,3.3,4.7c0.8,1.9,1.2,4,1.2,6.2c0,3.7-0.9,7-2.8,10
		c-1.9,3-4.4,5.2-7.7,6.6c-3.2,1.5-6.9,2.2-10.9,2.2c-2.1,0-4.5-0.2-7.1-0.7c-0.4-2-0.9-3.9-1.5-5.5c2.3,0.4,4.5,0.7,6.7,0.7
		c2.1,0,4.1-0.2,6.1-0.7c1.9-0.5,3.6-1.3,5-2.4s2.5-2.5,3.2-4.3c0.8-1.7,1.1-3.5,1.1-5.4c0-1.5-0.3-2.9-0.8-4.2
		c-0.6-1.3-1.3-2.3-2.3-3s-2.1-1.3-3.4-1.5c-1.2-0.3-3.1-0.4-5.4-0.4H176L171.4-1H168c-0.4,6.4-0.6,12.3-0.7,17.5l-0.7,18.2
		c-0.2,6.9-0.3,11.5-0.3,13.8v8.4l-4.1-0.1C161.7,56.8,160.3,56.8,158,56.8z"/>
</g>
</svg>
