<?xml version="1.0" encoding="utf-8"?>
<!-- Generator: Adobe Illustrator 25.2.1, SVG Export Plug-In . SVG Version: 6.00 Build 0)  -->
<svg version="1.1" id="Layer_1" xmlns="http://www.w3.org/2000/svg" xmlns:xlink="http://www.w3.org/1999/xlink" x="0px" y="0px"
	 viewBox="0 0 559.8 157.5" style="enable-background:new 0 0 559.8 157.5;" xml:space="preserve">
<style type="text/css">
	.st0{fill:none;}
	.st1{clip-path:url(#SVGID_2_);}
	.st2{fill-rule:evenodd;clip-rule:evenodd;fill:#813A96;}
	.st3{fill-rule:evenodd;clip-rule:evenodd;fill:#8E55A2;}
	.st4{fill-rule:evenodd;clip-rule:evenodd;fill:#902B91;}
	.st5{fill-rule:evenodd;clip-rule:evenodd;fill:#A22A66;}
	.st6{fill-rule:evenodd;clip-rule:evenodd;fill:#A12637;}
	.st7{fill-rule:evenodd;clip-rule:evenodd;fill:#D0273F;}
	.st8{fill-rule:evenodd;clip-rule:evenodd;fill:#EE2554;}
	.st9{fill-rule:evenodd;clip-rule:evenodd;fill:#EE2B5D;}
	.st10{fill-rule:evenodd;clip-rule:evenodd;fill:#EE2D4D;}
	.st11{fill-rule:evenodd;clip-rule:evenodd;fill:#EF3D37;}
	.st12{fill-rule:evenodd;clip-rule:evenodd;fill:#F47C30;}
	.st13{fill-rule:evenodd;clip-rule:evenodd;fill:#F47C32;}
	.st14{fill-rule:evenodd;clip-rule:evenodd;fill:#FCB123;}
	.st15{fill-rule:evenodd;clip-rule:evenodd;fill:#F5C422;}
	.st16{fill-rule:evenodd;clip-rule:evenodd;fill:#E7E125;}
	.st17{fill-rule:evenodd;clip-rule:evenodd;fill:#FBD71C;}
	.st18{fill-rule:evenodd;clip-rule:evenodd;fill:#CDCD2D;}
	.st19{fill-rule:evenodd;clip-rule:evenodd;fill:#C7D62F;}
	.st20{fill-rule:evenodd;clip-rule:evenodd;fill:#9AC23C;}
	.st21{fill-rule:evenodd;clip-rule:evenodd;fill:#9DC03B;}
	.st22{fill-rule:evenodd;clip-rule:evenodd;fill:#5FBB46;}
	.st23{fill-rule:evenodd;clip-rule:evenodd;fill:#23B34D;}
	.st24{fill-rule:evenodd;clip-rule:evenodd;fill:#00AB52;}
	.st25{fill-rule:evenodd;clip-rule:evenodd;fill:#009757;}
	.st26{fill-rule:evenodd;clip-rule:evenodd;fill:#00AEBA;}
	.st27{fill-rule:evenodd;clip-rule:evenodd;fill:#00AFCD;}
	.st28{fill-rule:evenodd;clip-rule:evenodd;fill:#0058A0;}
	.st29{fill-rule:evenodd;clip-rule:evenodd;fill:#294A9F;}
	.st30{fill-rule:evenodd;clip-rule:evenodd;fill:#4E437A;}
	.st31{fill-rule:evenodd;clip-rule:evenodd;fill:#8E88A9;}
	.st32{fill-rule:evenodd;clip-rule:evenodd;fill:#8D91B5;}
	.st33{fill-rule:evenodd;clip-rule:evenodd;fill:#C4C4C3;}
	.st34{fill:#FFFFFF;}
</style>
<g id="formadeO" transform="matrix(0.967353,0,0,1.057,15.2423,-3.91949)">
	<path class="st0" d="M140.9,38.3c-16-21-42.7-34.6-73.4-34.6c-49.1,0-83.3,31.1-83.3,74.5s29.3,74.5,78.4,74.5
		c33,0,61-15.8,76.1-39.3c-13.2,14.9-35.1,24.2-57.9,24.2c-39.8,0-61.6-24.8-61.6-60.6s26.7-60.6,66.5-60.6
		C106.9,16.2,127.6,25,140.9,38.3"/>
	<g>
		<g>
			<g>
				<g>
					<defs>
						<path id="SVGID_1_" d="M140.9,38.3c-16-21-42.7-34.6-73.4-34.6c-49.1,0-83.3,31.1-83.3,74.5s29.3,74.5,78.4,74.5
							c33,0,61-15.8,76.1-39.3c-13.2,14.9-35.1,24.2-57.9,24.2c-39.8,0-61.6-24.8-61.6-60.6s26.7-60.6,66.5-60.6
							C106.9,16.2,127.6,25,140.9,38.3"/>
					</defs>
					<clipPath id="SVGID_2_">
						<use xlink:href="#SVGID_1_"  style="overflow:visible;"/>
					</clipPath>
					<g class="st1">
						<g transform="matrix(1.05045,0,0,0.98414,-18.3617,-0.334618)">
							<path class="st2" d="M143.8,119.9l2.1,2.6l2.5-3.7l-1.6-1.5L143.8,119.9z"/>
						</g>
						<g transform="matrix(1.05045,0,0,0.98414,-18.3617,-0.334618)">
							<path class="st3" d="M147.3,117l1.4,1.4l1.4-2.7l-1.4-0.7L147.3,117z"/>
						</g>
						<g transform="matrix(1.05045,0,0,0.98414,-18.3617,-0.334618)">
							<path class="st4" d="M140.4,123.3l0.9,4.5l3.7-4.3l-1.9-2.9L140.4,123.3z"/>
						</g>
						<g transform="matrix(1.05045,0,0,0.98414,-18.3617,-0.334618)">
							<path class="st5" d="M139.5,123.8l1.2,5l-4.1,4.4l-2.1-5.8L139.5,123.8z"/>
						</g>
						<g transform="matrix(1.05045,0,0,0.98414,-18.3617,-0.334618)">
							<path class="st6" d="M133.8,127.9l2,6.1l-8.2,5.9l-1.6-8L133.8,127.9z"/>
						</g>
						<g transform="matrix(1.05045,0,0,0.98414,-18.3617,-0.334618)">
							<path class="st7" d="M125.3,131.9l1.5,9.7l-8.3,8l-2.3-15.7L125.3,131.9z"/>
						</g>
						<g transform="matrix(1.05045,0,0,0.98414,-18.3617,-0.334618)">
							<path class="st8" d="M115,135.4l1.7,14.4l-8.5,2.8l-0.2-16.3L115,135.4z"/>
						</g>
						<g transform="matrix(1.05045,0,0,0.98414,-18.3617,-0.334618)">
							<path class="st9" d="M106.5,136.2l-0.7,18.4l-11.4,1.1l3.1-19.5H106.5z"/>
						</g>
						<g transform="matrix(1.05045,0,0,0.98414,-18.3617,-0.334618)">
							<path class="st10" d="M95.8,135.4l-3.4,20.9l-13.3,1.2l9.2-19.7L95.8,135.4z"/>
						</g>
						<g transform="matrix(1.05045,0,0,0.98414,-18.3617,-0.334618)">
							<path class="st11" d="M86.5,137.4l-9.3,19.9l-14.5-1.4L77.1,135L86.5,137.4z"/>
						</g>
						<g transform="matrix(1.05045,0,0,0.98414,-18.3617,-0.334618)">
							<path class="st12" d="M75.5,133.8l-14.8,21.8l-14.3-3.8l19.2-22.4L75.5,133.8z"/>
						</g>
						<g transform="matrix(1.05045,0,0,0.98414,-18.3617,-0.334618)">
							<path class="st13" d="M63.8,128.2l-19.6,23.2l-12.9-8.6l24.8-18.7L63.8,128.2z"/>
						</g>
						<g transform="matrix(1.05045,0,0,0.98414,-18.3617,-0.334618)">
							<path class="st14" d="M54.7,123.1l-25.5,19.4l-10.5-10.6l31.2-16L54.7,123.1z"/>
						</g>
						<g transform="matrix(1.05045,0,0,0.98414,-18.3617,-0.334618)">
							<path class="st15" d="M49.1,114.8l-31.8,15.5l-9.8-13.8l36-10.7L49.1,114.8z"/>
						</g>
						<g transform="matrix(1.05045,0,0,0.98414,-18.3617,-0.334618)">
							<path class="st16" d="M42.5,104.7L6.9,115.1l-6.4-14.4l38.2-6.1L42.5,104.7z"/>
						</g>
						<g transform="matrix(1.05045,0,0,0.98414,-18.3617,-0.334618)">
							<path class="st17" d="M38.6,93.1l-38.4,6L-3,82.6l40.6-0.2L38.6,93.1z"/>
						</g>
						<g transform="matrix(1.05045,0,0,0.98414,-18.3617,-0.334618)">
							<path class="st18" d="M37.4,80.8l-39.7,0.3l0.2-15.3L37,70L37.4,80.8z"/>
						</g>
						<g transform="matrix(1.05045,0,0,0.98414,-18.3617,-0.334618)">
							<path class="st19" d="M37,68.6l-38-4l4.9-16.8l36,11.4L37,68.6z"/>
						</g>
						<g transform="matrix(1.05045,0,0,0.98414,-18.3617,-0.334618)">
							<path class="st20" d="M39.8,57.4L4.4,46.8l10-12.3l29.9,13.4L39.8,57.4z"/>
						</g>
						<g transform="matrix(1.05045,0,0,0.98414,-18.3617,-0.334618)">
							<path class="st21" d="M45.3,46l-30-13.2l11.3-12.3l25.7,17.1L45.3,46z"/>
						</g>
						<g transform="matrix(1.05045,0,0,0.98414,-18.3617,-0.334618)">
							<path class="st22" d="M53.4,35.9L27.7,19.4l11.6-8.6l21.6,18.7L53.4,35.9z"/>
						</g>
						<g transform="matrix(1.05045,0,0,0.98414,-18.3617,-0.334618)">
							<path class="st23" d="M60.9,28.6l-19-17.8L55,3.9l13.7,23.7L60.9,28.6z"/>
						</g>
						<g transform="matrix(1.05045,0,0,0.98414,-18.3617,-0.334618)">
							<path class="st24" d="M69.9,26.8L56.9,4l12.8-2.6L80,22.9L69.9,26.8z"/>
						</g>
						<g transform="matrix(1.05045,0,0,0.98414,-18.3617,-0.334618)">
							<path class="st25" d="M81.3,22.6L71.5,1.1l13.8-1.2l6.2,20.7L81.3,22.6z"/>
						</g>
						<g transform="matrix(1.05045,0,0,0.98414,-18.3617,-0.334618)">
							<path class="st26" d="M92.6,20.5L87.2,2.1l13,0.5l2.2,17.7L92.6,20.5z"/>
						</g>
						<g transform="matrix(1.05045,0,0,0.98414,-18.3617,-0.334618)">
							<path class="st27" d="M103.8,19.6l-2-16.5l11.9,3l-0.4,14.8L103.8,19.6z"/>
						</g>
						<g transform="matrix(1.05045,0,0,0.98414,-18.3617,-0.334618)">
							<path class="st28" d="M114.4,21.1L115,6.6l9.8,7l-1.9,9.1L114.4,21.1z"/>
						</g>
						<g transform="matrix(1.05045,0,0,0.98414,-18.3617,-0.334618)">
							<path class="st29" d="M124.2,23.5l1.7-9.8l7.5,5.2l-2.8,7.2L124.2,23.5z"/>
						</g>
						<g transform="matrix(1.05045,0,0,0.98414,-18.3617,-0.334618)">
							<path class="st30" d="M134.1,19.7l-2.5,6.8l5,3l2.9-5.3L134.1,19.7z"/>
						</g>
						<g transform="matrix(1.05045,0,0,0.98414,-18.3617,-0.334618)">
							<path class="st31" d="M140,24.9l-2.7,4.7l4.7,3.7l3-4.3L140,24.9z"/>
						</g>
						<g transform="matrix(1.05045,0,0,0.98414,-18.3617,-0.334618)">
							<path class="st32" d="M146.1,30.3l-3.3,3.2l4.2,3c0,0,2.9-2.3,3-2.4C150,34,146.1,30.3,146.1,30.3z"/>
						</g>
						<g transform="matrix(1.05045,0,0,0.98414,-18.3617,-0.334618)">
							<path class="st33" d="M147.6,36.9l2.6-2.5l2.2,4.1l-2.6,1L147.6,36.9z"/>
						</g>
					</g>
				</g>
			</g>
		</g>
	</g>
</g>
<g transform="matrix(0.764677,0,0,1.0549,-1.24802,-4.00626)">
	<g transform="matrix(1.34401,0,0,1,-20.18,0)">
		<path class="st34" d="M113.6,23.3c7.5,0,14.6,1.1,21.4,3.3c6.7,2.2,12.7,5.8,17.8,10.8c5.2,5,8.8,10.7,11,16.9s3.3,13,3.3,20.3
			c0,7.8-1.2,15.3-3.7,22.5c-2.4,7.2-6.2,13.3-11.3,18.3s-11.3,8.8-18.7,11.3c-7.4,2.5-15.2,3.8-23.4,3.8c-7.8,0-15.2-1.1-22.3-3.4
			c-7.1-2.3-13.2-5.8-18.2-10.5s-8.7-10.3-10.9-16.7s-3.3-13.2-3.3-20.4c0-7.9,1.3-15.5,4-22.8S66,43.3,71.2,38.2
			c5.3-5,11.6-8.8,19-11.2C97.7,24.5,105.5,23.3,113.6,23.3z M112.7,33.4c-6.1,0-11.8,1-17.3,2.9c-5.4,2-10.2,5.1-14.2,9.4
			s-7,9.4-9,15.2s-2.9,11.9-2.9,18.3c0,5.9,1,11.5,2.9,16.9s4.8,9.9,8.5,13.5c3.8,3.6,8.3,6.3,13.5,8c5.3,1.8,10.8,2.6,16.5,2.6
			c5.9,0,11.5-0.9,16.9-2.8s10-4.9,13.9-8.9c3.9-4.1,6.8-9,8.6-14.8c1.9-5.8,2.8-11.8,2.8-18.2c0-6-0.9-11.7-2.5-17.2
			c-1.7-5.5-4.4-10.1-8.1-14c-3.7-3.9-8.2-6.7-13.3-8.4C123.9,34.3,118.5,33.4,112.7,33.4z"/>
	</g>
	<g transform="matrix(1.34401,0,0,1,-20.18,0)">
		<path class="st34" d="M182.1,128.8c1-15.6,2-34.1,3-55.6c0.7-15.6,1.1-31.7,1.4-48.3l7.1,0.1c1.5,0,3.7,0,6.8-0.1L198,69.6
			l-1.7,45.2l-0.3,14c-3-0.1-5.2-0.2-6.7-0.2C188.7,128.7,186.3,128.7,182.1,128.8z"/>
	</g>
	<g transform="matrix(1.34401,0,0,1,-20.18,0)">
		<path class="st34" d="M220.7,35.1c0.2-4.8,0.2-8.4,0.2-10.8c2.8,0.1,5.3,0.2,7.4,0.2c2.7,0,5.1-0.1,7.3-0.2
			c-0.1,1.6-0.3,5.2-0.5,10.8C232.4,35,230,35,228,35S223.7,35.1,220.7,35.1z M217.3,128.8l1.3-19.2l1.4-32.7l0.6-25.2l7,0.1
			l6.8-0.1c-0.6,7.9-1.1,16.2-1.5,24.9s-0.8,18.1-1.1,28.4c-0.3,10.2-0.4,18.2-0.4,23.9c-3.2-0.1-5.5-0.2-6.8-0.2
			S220.9,128.7,217.3,128.8z"/>
	</g>
	<g transform="matrix(1.34401,0,0,1,-20.18,0)">
		<path class="st34" d="M253.7,128.8l1.3-17.3l2.4-59.5l0.3-12.8c0.1-2,0.1-4,0.1-6v-8.3c6.3,0.1,11.5,0.2,15.5,0.2
			c2.4,0,6-0.1,11-0.2c4.9-0.1,8.6-0.2,11-0.2c6.4,0,11.2,0.5,14.3,1.4c3.1,0.9,5.8,2.5,8.2,4.7c2.4,2.2,4.3,4.9,5.6,8.2
			c1.4,3.2,2.1,6.8,2.1,10.7c0,6.4-1.6,12.1-4.9,17.2c-3.2,5.1-7.7,8.9-13.3,11.4c-5.6,2.5-11.9,3.8-18.8,3.8
			c-3.7,0-7.7-0.4-12.2-1.2c-0.8-3.5-1.6-6.7-2.6-9.5c4,0.8,7.8,1.1,11.6,1.1c3.7,0,7.1-0.4,10.5-1.3c3.3-0.8,6.2-2.2,8.6-4.2
			s4.2-4.4,5.6-7.3c1.3-2.9,2-6.1,2-9.4c0-2.6-0.5-5-1.4-7.2c-1-2.2-2.3-4-4-5.3s-3.6-2.2-5.8-2.6c-2.2-0.5-5.3-0.7-9.4-0.7h-6.5
			l-8,0.2l-5.9-0.1c-0.6,11.1-1,21.2-1.3,30.3l-1.1,31.3c-0.4,11.9-0.5,19.8-0.5,23.8v8.6l-7.1-0.2
			C260.1,128.7,257.7,128.7,253.7,128.8z"/>
	</g>
	<g transform="matrix(1.34401,0,0,1,-20.18,0)">
		<path class="st34" d="M336.5,128.8c1.8-29.3,2.7-52.6,2.7-70.1l-0.1-7c2.6,0.1,4.7,0.1,6.4,0.1c1.9,0,4.1,0,6.5-0.1l-0.6,12.6
			c1.9-3.1,3.5-5.5,5-7.1c1.4-1.6,3.1-2.9,4.9-4c1.8-1,3.9-1.9,6.2-2.4c2.3-0.6,4.7-0.9,7.2-0.9c2.1,0,4.2,0.3,6.3,0.8
			c0.1,3.3,0.2,7.1,0.5,11.3c-3.1-0.9-6-1.3-8.4-1.3c-3,0-5.7,0.5-8.1,1.5s-4.5,2.5-6.4,4.5s-3.5,4.4-4.7,7.2
			c-1,2.2-1.8,5.1-2.3,8.7s-1,10-1.3,19.4c-0.2,6.8-0.3,14.1-0.3,21.8v5.1c-2.7-0.1-4.9-0.2-6.6-0.2
			C341.9,128.7,339.6,128.7,336.5,128.8z"/>
	</g>
	<g transform="matrix(1.34401,0,0,1,-20.18,0)">
		<path class="st34" d="M395,35.1c0.2-4.8,0.2-8.4,0.2-10.8c2.8,0.1,5.3,0.2,7.4,0.2c2.7,0,5.1-0.1,7.3-0.2
			c-0.1,1.6-0.3,5.2-0.5,10.8c-2.7-0.1-5.1-0.1-7.1-0.1C400.4,35.1,398,35.1,395,35.1z M391.6,128.8l1.3-19.2l1.4-32.7l0.6-25.2
			l7,0.1l6.8-0.1c-0.6,7.9-1.1,16.2-1.5,24.9c-0.5,8.7-0.8,18.1-1.1,28.4c-0.3,10.2-0.4,18.2-0.4,23.9c-3.2-0.1-5.5-0.2-6.8-0.2
			S395.2,128.7,391.6,128.8z"/>
	</g>
	<g transform="matrix(1.34401,0,0,1,-20.18,0)">
		<path class="st34" d="M425.9,128.8c2.4-31.8,3.7-57.5,3.8-77.1l6.9,0.1c1.7,0,3.9,0,6.6-0.1l-1,15.2c1.3-2.1,2.3-3.8,3-4.9
			c0.8-1.1,1.8-2.3,3-3.6c1.3-1.3,2.8-2.4,4.5-3.5s3.8-2,6.1-2.7c2.3-0.7,4.7-1.3,7.1-1.6c2.4-0.4,4.8-0.5,7.2-0.5
			c4.4,0,8.6,0.5,12.6,1.6c4.1,1.1,7.4,2.8,10,5.2s4.4,5.1,5.3,8.1s1.3,6.2,1.3,9.7c0,0.7,0,1.9-0.1,3.8s-0.2,4.3-0.3,7.4l-1.5,31.9
			c-0.1,3-0.2,6.8-0.2,11.2c-2.3-0.1-4.4-0.2-6.5-0.2c-2.5,0-4.8,0.1-7,0.2c0.5-6.1,0.9-12.1,1.1-17.7l1-17.7
			c0.3-6.1,0.5-10.7,0.5-13.8c0-4.5-0.8-8-2.3-10.7s-4-4.7-7.3-6.2c-3.3-1.4-7.1-2.2-11.3-2.2c-5.9,0-10.9,1.4-15.1,4.2
			c-3.9,2.6-6.8,6.3-9,11c-1.5,3.4-2.5,8.4-3.1,15.1c-0.8,8-1.3,20.6-1.6,38c-2.8-0.1-5-0.2-6.6-0.2
			C431.4,128.7,429.1,128.7,425.9,128.8z"/>
	</g>
	<g transform="matrix(1.34401,0,0,1,-20.18,0)">
		<path class="st34" d="M559.2,118.8c-0.6,2.5-1.2,5.8-1.8,9.9c-3.5,0.8-6.2,1.3-8.2,1.5s-4,0.3-5.8,0.3c-4.5,0-8.2-0.6-10.9-1.7
			c-2.8-1.1-4.9-3-6.4-5.5s-2.2-5.9-2.2-10.2c0-0.6,0-1.5,0.1-3c0.1-1.4,0.3-6.4,0.8-14.8l1.8-34.1h-10.1c0.2-2.1,0.4-5.2,0.5-9.1
			h10.4c0.3-2.8,0.5-7.7,0.8-14.5c4.8-0.9,8.8-1.8,12.1-2.6c-0.4,7.5-0.6,13.2-0.6,17.1h21.2c-0.3,3.2-0.4,6.2-0.5,9.1h-21.1
			l-2.1,42.9l-0.1,3.3c0,3.7,0.4,6.5,1.3,8.3c0.8,1.9,2.1,3.2,3.8,4s3.4,1.2,5.3,1.2c1.3,0,2.6-0.1,4.1-0.3
			C552.9,120.3,555.5,119.7,559.2,118.8z"/>
	</g>
</g>
</svg>
